<svg width="45" height="46" viewBox="0 0 45 46" fill="none" xmlns="http://www.w3.org/2000/svg">
<path d="M22.5 0.55957C34.6501 0.55957 44.4999 10.4105 44.5 22.5625C44.5 34.7146 34.6502 44.5664 22.5 44.5664C10.3498 44.5664 0.5 34.7146 0.5 22.5625C0.500132 10.4105 10.3499 0.55957 22.5 0.55957Z" stroke="black"/>
<path d="M26.3365 14.5472H28.5078V10.7306C27.4565 10.617 26.4002 10.5609 25.3432 10.5625C22.2017 10.5625 20.0535 12.5549 20.0535 16.2034V19.348H16.5078V23.6206H20.0535V34.5664H24.3038V23.6206H27.8379L28.3692 19.348H24.3038V16.6235C24.3038 15.3633 24.6272 14.5472 26.3365 14.5472Z" fill="black"/>
</svg>
