<svg width="45" height="46" viewBox="0 0 45 46" fill="none" xmlns="http://www.w3.org/2000/svg">
<path d="M27.0039 10.5596H18.0039C16.0148 10.5596 14.1071 11.3499 12.7006 12.7566C11.2941 14.1634 10.5039 16.0713 10.5039 18.0608L10.5039 27.0623C10.5039 29.0517 11.2941 30.9597 12.7006 32.3664C14.1071 33.7732 16.0148 34.5635 18.0039 34.5635H27.0039C28.993 34.5635 30.9007 33.7732 32.3072 32.3664C33.7137 30.9597 34.5039 29.0517 34.5039 27.0623V18.0608C34.5039 16.0713 33.7137 14.1634 32.3072 12.7566C30.9007 11.3499 28.993 10.5596 27.0039 10.5596ZM32.2539 27.0623C32.2539 29.9577 29.8989 32.3131 27.0039 32.3131H18.0039C15.1089 32.3131 12.7539 29.9577 12.7539 27.0623V18.0608C12.7539 15.1653 15.1089 12.8099 18.0039 12.8099H27.0039C29.8989 12.8099 32.2539 15.1653 32.2539 18.0608V27.0623Z" fill="black"/>
<path d="M22.4961 16.5605C20.9048 16.5605 19.3787 17.1928 18.2535 18.3182C17.1282 19.4436 16.4961 20.9699 16.4961 22.5614C16.4961 24.153 17.1282 25.6793 18.2535 26.8047C19.3787 27.9301 20.9048 28.5623 22.4961 28.5623C24.0874 28.5623 25.6135 27.9301 26.7387 26.8047C27.864 25.6793 28.4961 24.153 28.4961 22.5614C28.4961 20.9699 27.864 19.4436 26.7387 18.3182C25.6135 17.1928 24.0874 16.5605 22.4961 16.5605ZM22.4961 26.312C21.5019 26.3108 20.5488 25.9153 19.8458 25.2122C19.1428 24.5091 18.7473 23.5558 18.7461 22.5614C18.7461 20.4926 20.4291 18.8109 22.4961 18.8109C24.5631 18.8109 26.2461 20.4926 26.2461 22.5614C26.2461 24.6287 24.5631 26.312 22.4961 26.312Z" fill="black"/>
<path d="M28.9557 16.9082C29.3973 16.9082 29.7552 16.5503 29.7552 16.1089C29.7552 15.6674 29.3973 15.3096 28.9557 15.3096C28.5142 15.3096 28.1562 15.6674 28.1562 16.1089C28.1562 16.5503 28.5142 16.9082 28.9557 16.9082Z" fill="black"/>
<path d="M22.5 0.55957C34.6501 0.55957 44.4999 10.4105 44.5 22.5625C44.5 34.7146 34.6502 44.5664 22.5 44.5664C10.3498 44.5664 0.5 34.7146 0.5 22.5625C0.500132 10.4105 10.3499 0.55957 22.5 0.55957Z" stroke="black"/>
</svg>
