<svg width="45" height="46" viewBox="0 0 45 46" fill="none" xmlns="http://www.w3.org/2000/svg">
<path d="M22.5 0.55957C34.6501 0.55957 44.4999 10.4105 44.5 22.5625C44.5 34.7146 34.6502 44.5664 22.5 44.5664C10.3498 44.5664 0.5 34.7146 0.5 22.5625C0.500132 10.4105 10.3499 0.55957 22.5 0.55957Z" stroke="black"/>
<path d="M34 34.0637V25.1652C34 20.397 31.462 18.1784 28.078 18.1784C25.3472 18.1784 24.1233 19.6848 23.4415 20.7422V18.5432H18.2965C18.3647 19.9999 18.2965 34.0637 18.2965 34.0637H23.4415V25.3961C23.4415 24.9335 23.4745 24.4695 23.611 24.1386C23.9823 23.2113 24.829 22.2516 26.2495 22.2516C28.1117 22.2516 28.8558 23.6746 28.8558 25.7608V34.0645L34 34.0637ZM12.8763 16.4246C14.6695 16.4246 15.7878 15.2318 15.7878 13.7419C15.7547 12.2197 14.6702 11.0615 12.9107 11.0615C11.1513 11.0615 10 12.219 10 13.7419C10 15.2318 11.1168 16.4246 12.844 16.4246H12.8763ZM15.4488 34.0637V18.5432H10.3045V34.0637H15.4488Z" fill="black"/>
</svg>
