<svg width="28" height="29" viewBox="0 0 28 29" fill="none" xmlns="http://www.w3.org/2000/svg">
<path d="M25.2565 19.1537L21.2975 18.7016C20.3467 18.5925 19.4115 18.9199 18.7412 19.5901L15.8732 22.4581C11.4621 20.2136 7.84595 16.613 5.60143 12.1863L8.48501 9.30267C9.15525 8.63243 9.48258 7.69721 9.37347 6.7464L8.92145 2.81847C8.73441 1.24418 7.40952 0.0595703 5.81965 0.0595703H3.12311C1.36179 0.0595703 -0.103383 1.52475 0.00572582 3.28608C0.831833 16.5974 11.4777 27.2277 24.7734 28.0538C26.5347 28.163 27.9998 26.6978 27.9998 24.9364V22.2399C28.0154 20.6656 26.8308 19.3407 25.2565 19.1537Z" fill="black"/>
</svg>
