<svg width="45" height="46" viewBox="0 0 45 46" fill="none" xmlns="http://www.w3.org/2000/svg">
<path d="M22.5 0.55957C34.6501 0.55957 44.4999 10.4105 44.5 22.5625C44.5 34.7146 34.6502 44.5664 22.5 44.5664C10.3498 44.5664 0.5 34.7146 0.5 22.5625C0.500132 10.4105 10.3499 0.55957 22.5 0.55957Z" stroke="black"/>
<path d="M22.1016 14.0615C25.5213 14.0615 29.4458 14.1059 30.9932 14.2109H30.999C31.7785 14.2549 32.2771 14.3331 32.6592 14.5146C33.0172 14.6849 33.3199 14.9705 33.6406 15.541L33.6455 15.5488C34.3098 16.6822 34.6894 18.7303 34.6895 22.5596V22.5732C34.6894 26.3856 34.3099 28.4482 33.6484 29.5674L33.6426 29.5762C33.3221 30.1463 33.0193 30.4316 32.6602 30.6035C32.3722 30.7413 32.0186 30.8212 31.5303 30.875L31 30.9209C29.447 31.01 25.518 31.0645 22.1016 31.0645C18.6813 31.0644 14.7557 31.0105 13.2021 30.9199H13.2031C12.4235 30.867 11.9236 30.7863 11.5391 30.6025C11.1789 30.4303 10.8745 30.1439 10.5508 29.5732L10.5469 29.5674L10.4277 29.3457C9.84491 28.1819 9.50782 26.1446 9.50781 22.5713V22.5576L9.5127 21.8613C9.55714 18.479 9.9312 16.6107 10.5479 15.5469L10.5508 15.543C10.8748 14.9711 11.1796 14.6853 11.5391 14.5146C11.9224 14.3327 12.4209 14.2547 13.1992 14.21L13.2041 14.209C14.7501 14.1056 18.6755 14.0615 22.1016 14.0615Z" stroke="black"/>
<path fill-rule="evenodd" clip-rule="evenodd" d="M18.8359 27.4717V17.6523L27.0177 22.562L18.8359 27.4717Z" fill="black"/>
</svg>
