<svg width="51" height="41" viewBox="0 0 51 41" fill="none" xmlns="http://www.w3.org/2000/svg">
<path d="M21.1899 9.82724C21.0756 10.9639 20.6115 12.0266 19.7708 13.0758C19.4479 13.4727 18.8426 14.0309 18.0826 14.6362C18.0355 14.6295 17.9884 14.6228 17.9413 14.6228H13.9933C13.435 14.6228 12.9844 15.0734 12.9844 15.6317V24.1533C12.9844 24.7116 13.435 25.1622 13.9933 25.1622H17.9481C18.0557 25.1622 18.1566 25.142 18.2574 25.1084C18.4458 25.142 18.6408 25.1622 18.8359 25.1622H25.6155C27.566 25.1622 29.1466 23.5749 29.1466 21.6311V16.3311C29.1466 14.8851 27.9696 13.7081 26.5235 13.7081H25.1716C25.4339 12.9548 25.5684 12.0199 25.5752 10.9168C25.5752 9.45732 24.3847 8.26685 22.9252 8.26685C22.0374 8.27357 21.2706 8.95961 21.1899 9.82724ZM16.9392 23.1444H15.0021V16.6405H16.9392V23.1444ZM23.1606 10.3317C23.3893 10.4258 23.5574 10.6545 23.5574 10.9303C23.5507 12.4301 23.2413 13.5399 22.7301 13.8964C22.3737 14.152 22.219 14.6093 22.3535 15.0263C22.488 15.4433 22.8781 15.7325 23.3153 15.7325H26.5235C26.8598 15.7325 27.1288 16.0016 27.1288 16.3379V21.6378C27.1288 22.4718 26.4495 23.1512 25.6155 23.1512H18.9569V16.5195C19.7102 15.9478 20.7393 15.1003 21.3446 14.347C22.3669 13.0691 22.9588 11.7576 23.1606 10.3317Z" fill="#5A75AD"/>
<path d="M0.0859375 26.8705C0.0859375 29.9913 2.62831 32.5337 5.74911 32.5337H30.0362V33.6569C30.0362 35.3316 31.3948 36.697 33.0695 36.697H37.5288L39.143 40.2213C39.3044 40.5778 39.6676 40.8132 40.0577 40.8132C40.4545 40.8132 40.811 40.5845 40.9724 40.2213L42.5866 36.697H47.0458C48.7206 36.697 50.0859 35.3316 50.0859 33.6569V25.6195C50.0859 23.9447 48.7206 22.5794 47.0458 22.5794H42.0418V6.57186C42.0418 3.45106 39.4994 0.908691 36.3786 0.908691H5.75583C2.63504 0.908691 0.0926635 3.45106 0.0926635 6.57186V26.8705H0.0859375ZM48.0816 25.6195V33.6569C48.0816 34.2218 47.6243 34.6792 47.0593 34.6792H41.9477C41.5508 34.6792 41.1944 34.9079 41.0329 35.2711L40.0711 37.383L39.1026 35.2711C38.9412 34.9146 38.578 34.6792 38.1879 34.6792H33.083C32.5247 34.6792 32.0674 34.2218 32.0674 33.6569V31.5248V25.6195C32.0674 25.0545 32.5247 24.5972 33.083 24.5972H41.0329H47.0526C47.6175 24.5972 48.0816 25.0545 48.0816 25.6195ZM2.10369 6.56513C2.10369 4.5541 3.73808 2.91972 5.74911 2.91972H36.3719C38.3829 2.91972 40.0173 4.5541 40.0173 6.56513V22.5727H33.0762C31.4015 22.5727 30.0429 23.938 30.0429 25.6128V30.5092H5.75583C3.7448 30.5092 2.11042 28.8748 2.11042 26.8638V6.56513H2.10369Z" fill="#5A75AD"/>
<path d="M4.15341 12.3023C4.71166 12.3023 5.16229 11.8517 5.16229 11.2935V6.76024C5.16229 6.2558 5.57256 5.8388 6.08373 5.8388H21.7953C22.3536 5.8388 22.8042 5.38817 22.8042 4.82992C22.8042 4.27168 22.3536 3.82104 21.7953 3.82104H6.08373C4.4628 3.82104 3.14453 5.13931 3.14453 6.76024V11.2935C3.14453 11.8517 3.59516 12.3023 4.15341 12.3023Z" fill="#5A75AD"/>
<path d="M36.7687 27.0857C35.6656 28.1888 35.6656 29.9913 36.7687 31.0943L39.3514 33.6771C39.5465 33.8721 39.8088 33.973 40.0644 33.973C40.3199 33.973 40.5822 33.8721 40.7773 33.6771L43.36 31.0943C43.8981 30.5563 44.194 29.8433 44.194 29.09C44.194 28.3367 43.8981 27.6171 43.36 27.0857C42.4722 26.1912 41.127 26.023 40.0644 26.5678C39.0017 26.023 37.6632 26.1979 36.7687 27.0857ZM40.7773 28.5116C41.0934 28.1955 41.618 28.1888 41.9341 28.5116C42.0888 28.6663 42.1763 28.8748 42.1763 29.09C42.1763 29.3053 42.0888 29.5138 41.9341 29.6684L40.0644 31.5382L38.1946 29.6684C37.8717 29.3523 37.8717 28.8277 38.1946 28.5116C38.356 28.3502 38.5645 28.2695 38.773 28.2695C38.9815 28.2695 39.19 28.3502 39.3514 28.5116C39.7482 28.9017 40.3872 28.9084 40.7773 28.5116Z" fill="#5A75AD"/>
</svg>
