<svg width="51" height="51" viewBox="0 0 51 51" fill="none" xmlns="http://www.w3.org/2000/svg">
<path d="M18.4431 4.75638C22.4727 0.727645 29.0293 0.727645 33.0589 4.75638C33.1633 4.86065 33.2999 4.91279 33.4365 4.91279C33.8936 4.92903 34.1548 4.31813 33.8142 4.00072C29.3682 -0.444574 22.1338 -0.444574 17.6878 4.00072C17.4791 4.20926 17.4791 4.54762 17.6876 4.75627C17.8963 4.96492 18.2344 4.96492 18.4431 4.75638Z" fill="#5A75AD"/>
<path d="M22.3221 7.99343C24.2131 6.10273 27.2904 6.10273 29.1814 7.99343C29.2858 8.0977 29.4224 8.14984 29.5591 8.14984C30.0161 8.16608 30.2773 7.55518 29.9367 7.23777C27.629 4.93051 23.8743 4.93051 21.5667 7.23777C21.358 7.44632 21.358 7.78467 21.5666 7.99332C21.7753 8.20198 22.1135 8.20198 22.3221 7.99343Z" fill="#5A75AD"/>
<path d="M17.0967 40.6407C17.3917 40.6407 17.6309 40.4015 17.6309 40.1064V32.7972C17.6309 31.9135 18.3498 31.1945 19.2334 31.1945H23.6705L22.344 37.0076C22.3051 37.1778 22.3519 37.3563 22.4693 37.4856L25.3534 40.6625C25.5543 40.8938 25.9436 40.8938 26.1443 40.6625L29.0284 37.4856C29.1458 37.3563 29.1926 37.1778 29.1537 37.0076L27.8272 31.1945H32.2643C33.1479 31.1945 33.8668 31.9134 33.8668 32.7972V40.1064C33.8668 40.4015 34.106 40.6407 34.401 40.6407C34.696 40.6407 34.9352 40.4015 34.9352 40.1064V32.7972C34.9352 31.3243 33.737 30.126 32.2643 30.126H19.2334C17.7607 30.126 16.5625 31.3243 16.5625 32.7972V40.1064C16.5625 40.4016 16.8016 40.6407 17.0967 40.6407Z" fill="#5A75AD"/>
<path d="M25.7488 18.2268C23.1454 18.2268 21.0273 20.3381 21.0273 22.9332C21.0273 25.5283 23.1454 27.6395 25.7488 27.6395C28.3522 27.6395 30.4703 25.5283 30.4703 22.9332C30.4703 20.3381 28.3522 18.2268 25.7488 18.2268ZM25.7488 26.5709C23.7345 26.5709 22.0957 24.9391 22.0957 22.9332C22.0957 20.9273 23.7345 19.2954 25.7488 19.2954C27.7631 19.2954 29.4019 20.9273 29.4019 22.9332C29.4019 24.9391 27.7631 26.5709 25.7488 26.5709Z" fill="#5A75AD"/>
<path d="M48.08 11.3921H35.7046C34.2327 11.3921 33.0352 12.5894 33.0352 14.0611V20.4704C33.0352 21.9421 34.2327 23.1394 35.7046 23.1394H38.3733V27.0143C38.3713 27.4527 38.8905 27.7604 39.261 27.4148L44.1051 23.1393H48.08C49.552 23.1393 50.7495 21.942 50.7495 20.4703V14.061C50.7495 12.5894 49.552 11.3921 48.08 11.3921ZM46.3102 17.7977H37.4745C37.1795 17.7977 36.9403 17.5585 36.9403 17.2634C36.9403 16.9684 37.1795 16.7292 37.4745 16.7292H46.3102C46.6052 16.7292 46.8444 16.9684 46.8444 17.2634C46.8444 17.5585 46.6052 17.7977 46.3102 17.7977Z" fill="#5A75AD"/>
<path d="M8.26141 23.1552C12.4033 23.1552 15.7728 19.7862 15.7728 15.6451C15.7728 11.504 12.4032 8.13501 8.26141 8.13501C4.11965 8.13501 0.75 11.5041 0.75 15.6452C0.75 19.7863 4.11965 23.1552 8.26141 23.1552ZM8.26141 9.2036C11.8141 9.2036 14.7045 12.0933 14.7045 15.6451C14.7045 19.1969 11.8141 22.0866 8.26141 22.0866C4.70875 22.0866 1.81837 19.1972 1.81837 15.6452C1.81837 12.0933 4.70875 9.2036 8.26141 9.2036Z" fill="#5A75AD"/>
<path d="M30.9675 13.5309C30.9675 13.2358 30.7283 12.9966 30.4333 12.9966H18.1162C17.8212 12.9966 17.582 13.2358 17.582 13.5309C17.582 13.826 17.8212 14.0652 18.1162 14.0652H30.4333C30.7283 14.0651 30.9675 13.826 30.9675 13.5309Z" fill="#5A75AD"/>
<path d="M47.612 25.9846C48.0257 25.9846 48.361 25.6498 48.361 25.2368C48.361 24.8237 48.0257 24.4889 47.612 24.4889C47.1984 24.4889 46.8631 24.8237 46.8631 25.2368C46.8631 25.6498 47.1984 25.9846 47.612 25.9846Z" fill="#5A75AD"/>
<path d="M48.1453 42.7807V27.9476C48.1453 27.6525 47.9061 27.4133 47.6111 27.4133C47.3162 27.4133 47.077 27.6525 47.077 27.9476V42.7778H4.42085V25.3527C4.42085 25.0576 4.18164 24.8184 3.88666 24.8184C3.59168 24.8184 3.35247 25.0576 3.35247 25.3527V42.7807C1.93121 42.8395 0.792969 44.0136 0.792969 45.4497C0.792969 48.3263 3.13303 50.6667 6.00941 50.6667H45.4884C48.3647 50.6667 50.7048 48.3263 50.7048 45.4491C50.7048 44.0135 49.5666 42.8394 48.1453 42.7807ZM45.4884 49.5982H6.00941C3.72213 49.5982 1.86134 47.7372 1.86134 45.4491C1.86134 44.5653 2.58025 43.8463 3.4639 43.8463H19.3492V45.0127C19.3492 46.2498 20.3556 47.2564 21.5928 47.2564H29.905C31.1422 47.2564 32.1486 46.2498 32.1486 45.0127V43.8463H48.0339C48.9175 43.8463 49.6365 44.5652 49.6365 45.4496C49.6365 47.7372 47.7757 49.5982 45.4884 49.5982Z" fill="#5A75AD"/>
<path d="M6.77315 18.7841L11.7853 15.8486C12.1329 15.6593 12.1329 15.1159 11.7853 14.9266L6.77315 11.9912C6.43437 11.7782 5.95659 12.0522 5.96899 12.4522V18.323C5.963 18.6105 6.30168 19.0864 6.77315 18.7841Z" fill="#5A75AD"/>
</svg>
