<svg width="51" height="51" viewBox="0 0 51 51" fill="none" xmlns="http://www.w3.org/2000/svg">
<path d="M50.4101 39.972C50.4101 39.5426 50.0589 39.1914 49.6295 39.1914C49.1924 39.1914 48.8489 39.5428 48.8489 39.972L48.8568 48.2624C48.8568 48.7074 48.4977 49.0665 48.0527 49.0665L2.83016 49.1133C2.38519 49.1133 2.02609 48.7542 2.02609 48.3092L1.99489 14.4294L48.8256 14.3826L48.8412 35.499C48.8412 35.9283 49.1925 36.2796 49.6218 36.2796C50.059 36.2796 50.4024 35.9282 50.4024 35.499V35.4366C50.4024 35.1244 50.4024 35.0228 50.4024 35.0228C50.4024 33.3444 50.4024 26.5607 50.3712 3.03212C50.3712 1.72843 49.3095 0.666748 48.0059 0.666748L2.78325 0.713661C1.47955 0.713661 0.417969 1.77534 0.417969 3.07904C0.425821 11.5256 0.464781 47.8331 0.464781 48.3093C0.464781 49.613 1.52646 50.6746 2.83016 50.6746L48.0527 50.6278C49.3564 50.6278 50.418 49.5661 50.418 48.2625L50.4101 39.972ZM2.78325 2.27487L48.0058 2.22806C48.4507 2.22806 48.8098 2.58716 48.8098 3.03212L48.8177 12.8213L1.99489 12.8681L1.97918 3.07904C1.97918 2.63407 2.33828 2.27487 2.78325 2.27487Z" fill="#5A75AD"/>
<path d="M19.097 7.55989C19.1048 9.15241 17.8011 10.4483 16.2086 10.456C14.6161 10.456 13.3203 9.16016 13.3125 7.56764C13.3125 5.96726 14.6083 4.67142 16.2009 4.67142C17.8011 4.66367 19.097 5.95951 19.097 7.55989Z" fill="#5A75AD"/>
<path d="M27.5462 7.55198C27.5462 9.1445 26.2504 10.4403 24.6578 10.4482C23.0653 10.4482 21.7695 9.15235 21.7617 7.55198C21.7617 5.95945 23.0576 4.66361 24.6578 4.66361C26.2504 4.65576 27.5462 5.9517 27.5462 7.55198Z" fill="#5A75AD"/>
<path d="M45.9291 7.52862C45.9291 9.129 44.6332 10.4248 43.0407 10.4248L33.1031 10.4404C31.5106 10.4404 30.2069 9.1446 30.2069 7.54423C30.2069 5.95171 31.5028 4.65586 33.0953 4.65586L43.0329 4.64026C44.6255 4.64026 45.9291 5.9361 45.9291 7.52862Z" fill="#5A75AD"/>
<path d="M10.6517 7.5676C10.6595 9.16012 9.35583 10.4637 7.7633 10.4637C6.17078 10.4637 4.86719 9.16787 4.86719 7.57535C4.86719 5.97508 6.16303 4.67923 7.75555 4.67923C9.35583 4.67138 10.6517 5.97508 10.6517 7.5676Z" fill="#5A75AD"/>
<path d="M28.4337 28.278C28.4415 28.2859 28.4415 28.2859 28.4415 28.2859V28.278H28.4337ZM28.4258 28.2624C28.4179 28.2624 28.4179 28.2547 28.4102 28.2468H28.4023C28.4179 28.2624 28.4258 28.2702 28.4336 28.278L28.4258 28.2624ZM28.4337 28.278C28.4415 28.2859 28.4415 28.2859 28.4415 28.2859V28.278H28.4337ZM28.4258 28.2624C28.4179 28.2624 28.4179 28.2547 28.4102 28.2468H28.4023C28.4179 28.2624 28.4258 28.2702 28.4336 28.278L28.4258 28.2624Z" fill="#5A75AD"/>
<path d="M44.1339 26.2562L34.4618 16.6075C34.1651 16.303 33.6656 16.303 33.3612 16.6075L30.8397 19.1446C30.2776 19.7066 30.1371 20.5342 30.4103 21.2289C28.6539 22.5716 27.561 21.7363 25.4532 23.36C23.7124 22.3218 22.4868 22.7277 20.9646 21.5177C21.2066 20.8386 21.0661 20.0501 20.5196 19.5037L17.9903 16.9744C17.6859 16.67 17.1863 16.67 16.8819 16.9744L7.24085 26.6465C6.93642 26.951 6.93642 27.4427 7.233 27.7472L9.76227 30.2843C10.2854 30.8073 11.0738 31.0102 11.8232 30.7214C12.8146 31.7596 12.8849 32.6965 13.1503 33.4692C12.9863 33.5707 12.8302 33.6957 12.6897 33.8361L11.9168 34.6089C10.8864 35.6394 10.7927 37.2787 11.7061 38.3326C12.2057 38.9025 12.9396 39.2616 13.767 39.2459C13.7514 39.8782 13.9543 40.5105 14.3837 41.0101C14.8755 41.5722 15.6093 41.9313 16.4368 41.9234C16.4212 42.5401 16.6163 43.1569 17.03 43.6486C17.5375 44.2341 18.2713 44.6011 19.1143 44.5932C19.1065 45.21 19.2938 45.8267 19.7076 46.3184C20.7225 47.5128 22.5178 47.5987 23.6342 46.4824L24.4539 45.6628C24.9769 46.0843 25.6326 47.263 27.1627 47.263C28.56 47.263 29.8325 46.1624 29.8013 44.5776C30.5507 44.5932 31.2299 44.2967 31.7216 43.797C32.2291 43.2974 32.5101 42.626 32.5022 41.9079H32.5101C33.1892 41.9079 33.8762 41.6503 34.3992 41.1273C34.9144 40.6042 35.1721 39.9173 35.1721 39.2304H35.1798C36.1088 39.2304 36.9597 38.7541 37.4515 37.9657C38.0135 37.0602 37.9355 35.8658 37.2953 34.9603C38.9346 32.915 38.1931 31.9314 39.6294 30.3623C40.3866 30.6199 41.1204 30.3858 41.6122 29.9017L44.1336 27.3569C44.4385 27.0524 44.4385 26.5528 44.1339 26.2562ZM12.8849 37.3101C12.5102 36.8807 12.5727 36.1625 13.0254 35.7098L13.7904 34.9369C14.2198 34.5076 14.9302 34.5076 15.3283 34.9057L15.3361 34.9136C15.8436 35.4991 15.7578 36.1235 15.3674 36.5138L14.5086 37.3647C14.0793 37.8018 13.2908 37.7785 12.8849 37.3101ZM15.5626 39.9799C15.1879 39.5505 15.2503 38.8323 15.7031 38.3796L16.4681 37.6146C16.6867 37.396 16.9677 37.2867 17.2566 37.2867C17.5375 37.2867 17.8186 37.396 18.0372 37.6146C18.4665 38.044 18.4665 38.7465 18.0372 39.1759L17.1784 40.0424C16.7412 40.4795 15.9685 40.4483 15.5626 39.9799ZM19.8561 42.7121C19.4033 43.1571 18.6383 43.1259 18.2245 42.6341C17.8577 42.2126 17.9278 41.51 18.365 41.065L19.1457 40.2844C19.575 39.8473 20.2776 39.8473 20.707 40.2765L20.7148 40.2844C21.1442 40.7138 21.1442 41.4163 20.7148 41.8457C20.6446 41.9237 19.9498 42.6186 19.8639 42.7044L19.8561 42.7121ZM23.3923 44.5232L22.5336 45.3819C22.0807 45.8346 21.308 45.7957 20.902 45.3038C20.5351 44.8823 20.6053 44.1718 21.0425 43.7347L21.8231 42.9541C22.2369 42.5403 22.9083 42.517 23.3922 42.9541C23.603 43.1727 23.7123 43.4537 23.7123 43.7347C23.7124 44.0158 23.6031 44.3046 23.3923 44.5232ZM36.1246 37.1383C35.7578 37.7316 34.8756 37.833 34.3916 37.349L28.7632 31.7284C28.4588 31.424 27.9591 31.424 27.6547 31.7284C27.3503 32.0329 27.3503 32.5325 27.6547 32.837L33.2909 38.4499V38.4576C33.7203 38.887 33.7203 39.5896 33.2909 40.0189C32.8615 40.4561 32.1512 40.4561 31.7218 40.0268L26.0935 34.4062C25.7891 34.1018 25.2894 34.1018 24.9849 34.4062C24.6805 34.7106 24.6805 35.2024 24.9849 35.5068L30.6212 41.1274C31.0506 41.5645 31.0506 42.2594 30.6212 42.6965C30.1841 43.1336 29.4814 43.1336 29.0521 42.6965C27.8811 41.5255 23.8843 37.5442 23.4237 37.0759C23.1115 36.7715 22.6196 36.7792 22.3152 37.0837C22.0108 37.3882 22.0108 37.88 22.3152 38.1844L27.8811 43.7347C28.3105 44.1718 28.3729 44.8745 28.0217 45.296C27.6001 45.7957 26.8273 45.8269 26.3745 45.3741L25.2268 44.2266C25.3986 43.3211 25.102 42.4546 24.493 41.8456C23.9699 41.3226 23.2829 41.065 22.6038 41.065C22.596 40.3547 22.3228 39.6833 21.8154 39.1759C21.308 38.6685 20.6366 38.3953 19.9263 38.3953H19.9184C19.9184 37.7083 19.6608 37.0292 19.1378 36.5061C18.6226 35.9831 17.9356 35.7255 17.2487 35.7255C17.2487 35.0464 16.9911 34.3594 16.4681 33.8364H16.4602C15.9606 33.3368 15.3127 33.0792 14.6569 33.0635C14.4071 32.3922 14.2901 31.1042 13.0488 29.738L20.0043 22.7669C21.6827 24.0939 23.0565 23.9067 24.2509 24.4765L21.2455 27.4898C20.5429 28.2002 20.3322 29.2619 20.7225 30.2064C21.0738 31.0729 21.8622 31.6817 22.9161 31.6817C25.7186 31.674 26.7256 29.6053 28.3963 28.2313L28.404 28.2392V28.247H28.4119C28.4197 28.2549 28.4197 28.2626 28.4275 28.2626L28.4353 28.2782H28.4432V28.2861C28.6696 28.5046 29.942 29.7693 35.8748 35.6865C36.2807 36.0922 36.39 36.7168 36.1246 37.1383ZM36.2105 33.8207L29.5049 27.1306L29.497 27.1227C29.1847 26.8183 28.7711 26.6621 28.365 26.6621C27.9513 26.6621 27.5454 26.8183 27.2331 27.1227C25.5547 28.5747 24.9146 30.1126 22.8927 30.1203C22.8849 30.1203 22.8849 30.1203 22.8849 30.1203C22.4243 30.1126 22.2292 29.7612 22.1667 29.6129C22.0496 29.3241 22.034 28.9103 22.3541 28.5981C22.8458 28.0984 25.7654 25.171 25.945 24.9836C27.7717 23.157 29.1534 24.1952 31.4095 22.4388C31.4173 22.4466 31.4251 22.4544 31.4328 22.47C31.4407 22.47 31.4407 22.4778 31.4484 22.4778C31.4563 22.4857 31.4718 22.509 31.4875 22.5169C31.7919 22.8292 33.1892 24.2265 38.3727 29.41C36.8116 31.2054 37.4048 32.1891 36.2105 33.8207Z" fill="#5A75AD"/>
</svg>
