<svg width="51" height="49" viewBox="0 0 51 49" fill="none" xmlns="http://www.w3.org/2000/svg">
<path d="M28.7578 0.804321L31.6606 8.74916H37.3241L32.4874 0.804321H28.7578Z" fill="#5A75AD"/>
<path d="M22.9806 0.804321L23.9476 8.74916H29.7575L26.8557 0.804321H22.9806Z" fill="#5A75AD"/>
<path d="M34.9753 16.0338C36.6548 16.0338 38.0218 14.6677 38.0218 12.9873V10.5345H31.9297V12.9873C31.9297 14.6668 33.2958 16.0338 34.9753 16.0338Z" fill="#5A75AD"/>
<path d="M0.417969 12.9872C0.417969 14.6667 1.78407 16.0337 3.46447 16.0337C5.14487 16.0337 6.51009 14.6676 6.51009 12.9872V10.5344H0.417969V12.9872Z" fill="#5A75AD"/>
<path d="M46.9114 32.3609C46.6712 31.4279 46.3016 30.5359 45.8141 29.7118C45.6292 29.3992 45.6516 29.0073 45.8703 28.718L47.5552 26.4911L45.4221 24.358L43.1952 26.0429C42.9051 26.2608 42.5131 26.284 42.2015 26.0992C41.3773 25.6117 40.4862 25.2429 39.5523 25.0018C39.2014 24.9116 38.9398 24.6188 38.8898 24.2598L38.5067 21.4928H37.0022C37.0022 21.4928 36.9996 21.4928 36.9978 21.4928C36.996 21.4928 36.9951 21.4928 36.9933 21.4928H35.4888L35.1058 24.2598C35.0558 24.6188 34.7941 24.9116 34.4432 25.0018C33.5102 25.242 32.6191 25.6108 31.7941 26.0992C31.4816 26.284 31.0896 26.2617 30.8003 26.0429L28.5735 24.358L26.4395 26.492L28.1243 28.7189C28.3431 29.0082 28.3654 29.4001 28.1806 29.7126C27.6922 30.5377 27.3234 31.4288 27.0841 32.3609C26.9939 32.7118 26.7002 32.9743 26.3413 33.0234L23.5742 33.4065V36.4235L26.3413 36.8066C26.7002 36.8566 26.9931 37.1182 27.0841 37.4691C27.3234 38.4021 27.6922 39.2932 28.1806 40.1174C28.3654 40.429 28.3431 40.8219 28.1243 41.1111L26.4395 43.338L28.5735 45.472L30.8003 43.7871C31.0887 43.5683 31.4816 43.5451 31.7941 43.7309C32.6182 44.2184 33.5093 44.5871 34.4423 44.8273C34.7932 44.9175 35.0558 45.2112 35.1049 45.5702L35.4879 48.3372H38.5049L38.888 45.5702C38.938 45.2112 39.1996 44.9184 39.5505 44.8273C40.4836 44.588 41.3747 44.2184 42.1988 43.7309C42.5104 43.5451 42.9024 43.5683 43.1926 43.7871L45.4194 45.472L47.5534 43.338L45.8685 41.1111C45.6498 40.8219 45.6275 40.4299 45.8123 40.1174C46.2998 39.2932 46.6685 38.4021 46.9096 37.4682C46.9998 37.1173 47.2927 36.8557 47.6516 36.8057L50.4186 36.4226V33.4056L47.6516 33.0225C47.2927 32.9725 46.9998 32.7109 46.9096 32.36L46.9114 32.3609ZM36.9996 41.7906C33.2084 41.7906 30.1235 38.7057 30.1235 34.9146C30.1235 31.1234 33.2084 28.0385 36.9996 28.0385C40.7907 28.0385 43.8756 31.1234 43.8756 34.9146C43.8756 38.7057 40.7907 41.7906 36.9996 41.7906Z" fill="#5A75AD"/>
<path d="M14.3891 12.9872V10.5344H8.29694V12.9872C8.29694 14.6667 9.66304 16.0337 11.3434 16.0337C13.0238 16.0337 14.3891 14.6676 14.3891 12.9872Z" fill="#5A75AD"/>
<path d="M8.67969 8.74916H14.4897L15.4566 0.804321H11.5824L8.67969 8.74916Z" fill="#5A75AD"/>
<path d="M1.11719 8.74916H6.78072L9.68347 0.804321H5.95392L1.11719 8.74916Z" fill="#5A75AD"/>
<path d="M16.1719 12.9873C16.1719 14.6668 17.538 16.0338 19.2184 16.0338C20.8988 16.0338 22.2649 14.6677 22.2649 12.9873V10.5345H16.1728L16.1719 12.9873Z" fill="#5A75AD"/>
<path d="M15.2797 15.7762C14.4038 17.0102 12.9662 17.8192 11.3412 17.8192C9.71615 17.8192 8.27861 17.0102 7.4018 15.7762C6.52589 17.0102 5.08835 17.8192 3.46331 17.8192C3.07312 17.8192 2.69633 17.7674 2.33203 17.6799V34.5133H21.7914V32.6276C21.7914 32.182 22.12 31.8043 22.562 31.7427L25.5219 31.3329C25.7371 30.6409 26.0148 29.9712 26.3505 29.3302L24.5469 26.948C24.2781 26.5926 24.312 26.0926 24.6272 25.7774L27.8612 22.5443C28.1764 22.2291 28.6747 22.1934 29.0318 22.4639L31.414 24.2666C32.0533 23.9309 32.7239 23.6532 33.4167 23.438L33.8257 20.4781C33.8873 20.0362 34.2641 19.7076 34.7105 19.7076H36.1043V17.6799C35.7409 17.7674 35.3632 17.8192 34.973 17.8192C33.348 17.8192 31.9105 17.0102 31.0345 15.7762C30.1586 17.0102 28.7211 17.8192 27.0952 17.8192C25.4692 17.8192 24.0326 17.0102 23.1567 15.7762C22.2807 17.0102 20.8432 17.8192 19.2173 17.8192C17.5913 17.8192 16.1547 17.0102 15.2779 15.7762H15.2797Z" fill="#5A75AD"/>
<path d="M17.2561 0.804321L16.2891 8.74916H22.1499L21.1829 0.804321H17.2561Z" fill="#5A75AD"/>
<path d="M24.0508 12.9873C24.0508 14.6668 25.4169 16.0338 27.0964 16.0338C28.7759 16.0338 30.1429 14.6677 30.1429 12.9873V10.5345H24.0508V12.9873Z" fill="#5A75AD"/>
</svg>
