<svg width="51" height="41" viewBox="0 0 51 41" fill="none" xmlns="http://www.w3.org/2000/svg">
<path d="M48.7346 30.9087H47.9013V14.242C47.9013 11.492 45.6513 9.24202 42.9013 9.24202H37.0346L36.7846 4.55869C36.668 2.50869 34.9513 0.908691 32.8513 0.908691H17.968C15.868 0.908691 14.1346 2.50869 14.0346 4.55869L13.7846 9.24202H7.91797C5.16797 9.24202 2.91797 11.492 2.91797 14.242V30.9087H2.08464C1.16797 30.9087 0.417969 31.6587 0.417969 32.5754V35.9087C0.417969 38.6587 2.66797 40.9087 5.41797 40.9087H45.418C48.168 40.9087 50.418 38.6587 50.418 35.9087V32.5754C50.418 31.6587 49.668 30.9087 48.7513 30.9087H48.7346ZM17.3513 4.74202C17.3513 4.47536 17.6346 4.24202 17.968 4.24202H32.8513C33.168 4.24202 33.4513 4.45869 33.468 4.74202L34.318 20.3754C34.318 20.542 34.2513 20.6587 34.1846 20.7254C34.118 20.792 33.968 20.9254 33.7013 20.9254H17.1013C16.8513 20.9254 16.7013 20.8087 16.618 20.7254C16.5513 20.6587 16.468 20.542 16.4846 20.3754L17.3346 4.74202H17.3513ZM6.23464 14.242C6.23464 13.3254 6.98463 12.5754 7.9013 12.5754H13.5846L13.168 20.1754C13.1013 21.2254 13.4846 22.2254 14.2013 22.992C14.9513 23.7754 16.0013 24.2254 17.1013 24.2254H33.7013C34.8013 24.2254 35.8513 23.7754 36.6013 22.992C37.3346 22.2254 37.7013 21.2254 37.6346 20.1754L37.218 12.5754H42.9013C43.818 12.5754 44.568 13.3254 44.568 14.242V30.9087H6.23464V14.242ZM47.068 35.9087C47.068 36.8254 46.318 37.5754 45.4013 37.5754H5.4013C4.48464 37.5754 3.73464 36.8254 3.73464 35.9087V34.242H47.068V35.9087Z" fill="#5A75AD"/>
<path d="M12.0638 25.6418H10.3971C9.48047 25.6418 8.73047 26.3918 8.73047 27.3085C8.73047 28.2252 9.48047 28.9752 10.3971 28.9752H12.0638C12.9805 28.9752 13.7305 28.2252 13.7305 27.3085C13.7305 26.3918 12.9805 25.6418 12.0638 25.6418Z" fill="#5A75AD"/>
<path d="M40.3997 25.6418H38.7331C37.8164 25.6418 37.0664 26.3918 37.0664 27.3085C37.0664 28.2252 37.8164 28.9752 38.7331 28.9752H40.3997C41.3164 28.9752 42.0664 28.2252 42.0664 27.3085C42.0664 26.3918 41.3164 25.6418 40.3997 25.6418Z" fill="#5A75AD"/>
<path d="M23.6667 12.5256H27.1333C29.4333 12.5256 31.3 10.6589 31.3 8.35894V7.3256C31.3 6.40894 30.55 5.65894 29.6333 5.65894C28.7167 5.65894 27.9667 6.40894 27.9667 7.3256V8.35894C27.9667 8.8256 27.6 9.19227 27.1333 9.19227H23.6667C23.2 9.19227 22.8333 8.8256 22.8333 8.35894V7.3256C22.8333 6.40894 22.0833 5.65894 21.1667 5.65894C20.25 5.65894 19.5 6.40894 19.5 7.3256V8.35894C19.5 10.6589 21.3667 12.5256 23.6667 12.5256Z" fill="#5A75AD"/>
</svg>
