<svg width="51" height="44" viewBox="0 0 51 44" fill="none" xmlns="http://www.w3.org/2000/svg">
<path d="M42.906 28.6809H41.1654C41.0864 28.6809 41.0303 28.6365 40.9965 28.5991C40.9318 28.5271 40.9009 28.4253 40.9119 28.3204L41.1621 25.9344C41.2976 24.6396 40.4736 23.467 39.2456 23.2074C38.6898 23.0877 38.1181 23.2285 37.6734 23.5894C37.2055 23.9687 36.9369 24.5387 36.9369 25.1535V25.9966C36.9369 27.2905 36.0923 28.4095 34.924 28.6834C34.504 28.3635 33.9861 28.1662 33.4185 28.1662H32.5852C31.2067 28.1662 30.0853 29.2875 30.0853 30.6661V35.666C30.0853 37.0445 31.2067 38.1659 32.5852 38.1659H33.4185C34.1545 38.1659 34.8104 37.8404 35.2683 37.3326C36.2063 37.1614 37.0836 37.8414 37.9245 38.325C38.7561 38.7661 39.6887 38.9993 40.6217 38.9993H42.3978C43.9042 38.9993 45.1879 37.825 45.384 36.2678L45.8922 32.2306C46.0086 31.3053 45.7283 30.3813 45.1224 29.6948C44.5544 29.0503 43.7463 28.6809 42.906 28.6809ZM33.4185 36.4993H32.5852C32.1258 36.4993 31.7519 36.1254 31.7519 35.666V30.6661C31.7519 30.2067 32.1258 29.8328 32.5852 29.8328H33.4185C33.8211 29.8328 34.1422 30.1255 34.2194 30.5056L34.2474 35.6878C34.2351 36.1365 33.8702 36.4993 33.4185 36.4993ZM44.2386 32.0223L43.7304 36.0595C43.6389 36.7853 43.066 37.3326 42.3978 37.3326H40.6218C39.9602 37.3326 39.2973 37.1666 38.7045 36.8525C37.8421 36.3792 36.9735 35.6696 35.9185 35.666V30.6661C35.9147 30.4924 35.8725 30.3021 35.8839 30.1282C37.4936 29.4845 38.6036 27.8471 38.6036 25.9966V25.1535C38.6245 24.9178 38.7285 24.826 38.9002 24.8378C39.2847 24.9191 39.55 25.3244 39.5044 25.7606L39.2542 28.1458C39.194 28.7199 39.3775 29.2916 39.7579 29.7144C40.1201 30.1168 40.6332 30.3475 41.1654 30.3475H42.9061C43.2735 30.3475 43.6169 30.507 43.8728 30.7971C44.1621 31.1251 44.2952 31.5718 44.2386 32.0223ZM35.9185 3.16669C34.5399 3.16669 33.4185 4.28809 33.4185 5.66664C33.4185 7.04519 34.5399 8.16658 35.9185 8.16658C37.297 8.16658 38.4184 7.04519 38.4184 5.66664C38.4184 4.28809 37.297 3.16669 35.9185 3.16669ZM35.9185 6.49995C35.4591 6.49995 35.0852 6.12602 35.0852 5.66664C35.0852 5.20726 35.4591 4.83332 35.9185 4.83332C36.3779 4.83332 36.7518 5.20726 36.7518 5.66664C36.7518 6.12602 36.3779 6.49995 35.9185 6.49995ZM30.0853 3.16669C28.7067 3.16669 27.5853 4.28809 27.5853 5.66664C27.5853 7.04519 28.7067 8.16658 30.0853 8.16658C31.4638 8.16658 32.5852 7.04519 32.5852 5.66664C32.5852 4.28809 31.4638 3.16669 30.0853 3.16669ZM30.0853 6.49995C29.6259 6.49995 29.252 6.12602 29.252 5.66664C29.252 5.20726 29.6259 4.83332 30.0853 4.83332C30.5447 4.83332 30.9186 5.20726 30.9186 5.66664C30.9186 6.12602 30.5447 6.49995 30.0853 6.49995ZM25.9187 5.66664C25.9187 6.12684 25.5456 6.49995 25.0854 6.49995H4.25251C3.79231 6.49995 3.4192 6.12684 3.4192 5.66664C3.4192 5.20644 3.79231 4.83332 4.25251 4.83332H25.0854C25.5456 4.83332 25.9187 5.20644 25.9187 5.66664ZM26.4985 16.809L18.8612 12.277C18.0791 11.8123 17.14 11.8038 16.3486 12.2546C15.5576 12.7046 15.0856 13.5168 15.0856 14.4266V23.4909C15.0856 24.4008 15.5576 25.2129 16.3486 25.6633C17.1709 26.1074 18.1083 26.0877 18.8612 25.6406L26.4985 21.1086C27.2651 20.6537 27.7229 19.8501 27.7229 18.959C27.7229 18.0675 27.2651 17.2639 26.4985 16.809ZM25.6481 19.6755L18.0108 24.2075C17.6332 24.4297 17.2991 24.2868 17.173 24.2148C17.0464 24.1428 16.7522 23.928 16.7522 23.491V14.4266C16.7522 13.9896 17.0468 13.7748 17.1734 13.7028C17.3841 13.5784 17.7466 13.5347 18.0108 13.7101L25.6481 18.2421C26.0168 18.461 26.0562 18.8162 26.0562 18.959C26.0562 19.1014 26.0168 19.4566 25.6481 19.6755ZM41.7517 21.1577V3.16669C41.7517 1.78814 40.6303 0.666748 39.2517 0.666748H2.58588C1.20733 0.666748 0.0859375 1.78814 0.0859375 3.16669V33.9994C0.0859375 35.3779 1.20733 36.4993 2.58588 36.4993H27.5387C28.9579 40.1863 32.2015 43.073 36.3663 43.8172C42.699 44.9488 48.7714 40.7175 49.903 34.3848C50.9561 28.4905 47.3607 22.8267 41.7517 21.1577ZM1.75257 3.16669C1.75257 2.70731 2.1265 2.33338 2.58588 2.33338H39.2517C39.7111 2.33338 40.0851 2.70731 40.0851 3.16669V8.9999H1.75257V3.16669ZM27.0376 29.8328H14.2523V29.4161C14.2523 28.2675 13.3177 27.3328 12.169 27.3328C11.0203 27.3328 10.0857 28.2675 10.0857 29.4161V29.8328H3.24993C2.78974 29.8328 2.41662 30.2059 2.41662 30.6661C2.41662 31.1263 2.78974 31.4994 3.24993 31.4994H10.0857V31.9161C10.0857 33.0647 11.0203 33.9994 12.169 33.9994C13.3177 33.9994 14.2523 33.0647 14.2523 31.9161V31.4994H26.7829C26.7005 32.6385 26.7893 33.7585 27.0265 34.8327H2.58588C2.1265 34.8327 1.75257 34.4587 1.75257 33.9994V10.6665H40.0851V20.7993C34.0458 19.9254 28.3437 23.8801 27.0376 29.8328ZM12.5857 29.4161V31.9161C12.5857 32.146 12.3989 32.3327 12.169 32.3327C11.9391 32.3327 11.7523 32.146 11.7523 31.9161V29.4161C11.7523 29.1862 11.9391 28.9995 12.169 28.9995C12.3989 28.9995 12.5857 29.1862 12.5857 29.4161ZM48.2623 34.0917C47.2924 39.5195 42.0873 43.1464 36.6595 42.1766C31.2316 41.2067 27.6047 36.0016 28.5746 30.5737C29.5444 25.1459 34.7496 21.5189 40.1774 22.4888C45.6052 23.4587 49.2322 28.6638 48.2623 34.0917Z" fill="#5A75AD"/>
</svg>
