<svg width="51" height="49" viewBox="0 0 51 49" fill="none" xmlns="http://www.w3.org/2000/svg">
<path fill-rule="evenodd" clip-rule="evenodd" d="M11.5931 10.109C9.82801 10.109 8.87463 13.1071 8.87463 15.9285C8.87463 18.7487 9.82791 21.7468 11.593 21.7468H30.8596C31.0045 21.7468 31.146 21.7955 31.2603 21.8849L37.0029 26.3684L37.8429 22.2676C37.9052 21.9642 38.1723 21.7468 38.4826 21.7468H39.9081C41.6732 21.7468 42.6253 18.7488 42.6253 15.9273C42.6253 13.1071 41.6731 10.109 39.908 10.109L11.5931 10.109ZM37.4298 28.1821C37.2871 28.1821 37.1455 28.1346 37.0289 28.0441L30.6343 23.0511H11.5931C8.82941 23.0511 7.57031 19.359 7.57031 15.9285C7.57034 14.1396 7.89074 12.4628 8.47382 11.205C9.1905 9.65719 10.2978 8.80472 11.593 8.80472L39.9081 8.80469C42.6718 8.80469 43.9296 12.4968 43.9296 15.9273C43.9296 19.359 42.6717 23.0511 39.908 23.0511H39.0137L38.0694 27.6602C38.0241 27.8822 37.8678 28.0633 37.655 28.1414C37.5825 28.1686 37.5056 28.1822 37.4298 28.1821Z" fill="#5A75AD"/>
<path fill-rule="evenodd" clip-rule="evenodd" d="M14.2764 15.8399L14.6932 16.1411C14.9218 16.3075 15.018 16.6031 14.9297 16.8725L14.7701 17.3605L15.1856 17.0582C15.4144 16.8906 15.7256 16.8906 15.9543 17.0582L16.3687 17.3605L16.2092 16.8725C16.1207 16.603 16.217 16.3076 16.4468 16.1411L16.8635 15.8399L16.3495 15.8411C16.0665 15.8411 15.8139 15.6588 15.7279 15.3893L15.5694 14.9002L15.4121 15.3893C15.3248 15.6588 15.0746 15.8411 14.7916 15.8411L14.2764 15.8399ZM13.5224 19.7302C13.3877 19.7302 13.254 19.6883 13.1397 19.6056C12.91 19.4392 12.8147 19.1437 12.903 18.8754L13.5428 16.9189L11.8751 15.712C11.6463 15.5467 11.5501 15.2512 11.6373 14.9829C11.7245 14.7134 11.9747 14.5323 12.2577 14.5323L14.3172 14.5356L14.9489 12.5769C15.0362 12.3075 15.2863 12.1252 15.5694 12.1252C15.8525 12.1252 16.1038 12.3075 16.1898 12.577L16.8227 14.5356L18.881 14.5323C19.163 14.5323 19.4154 14.7134 19.5026 14.9829C19.5898 15.2512 19.4936 15.5467 19.2648 15.712L17.5972 16.9189L18.2369 18.8753C18.3252 19.1437 18.2289 19.4392 18.0002 19.6056C17.7715 19.772 17.4613 19.7721 17.2325 19.6045L15.5694 18.3919L13.9074 19.6045C13.793 19.6883 13.6571 19.7302 13.5224 19.7302Z" fill="#5A75AD"/>
<path fill-rule="evenodd" clip-rule="evenodd" d="M25.7491 16.9327C25.8838 16.9327 26.0197 16.9747 26.134 17.0584L26.5485 17.3607L26.3888 16.8727C26.3005 16.6033 26.3967 16.3078 26.6265 16.1414L27.042 15.8402L26.5292 15.8413C26.2463 15.8413 25.9936 15.659 25.9076 15.3896L25.7491 14.9004L25.5918 15.3895C25.5045 15.659 25.2543 15.8413 24.9712 15.8413L24.4561 15.8402L24.8716 16.1413C25.1015 16.3077 25.1977 16.6033 25.1094 16.8728L24.9498 17.3607L25.3653 17.0584C25.4797 16.9746 25.6143 16.9328 25.7491 16.9327ZM27.7961 19.7304C27.6614 19.7304 27.5266 19.6885 27.4123 19.6048L25.7491 18.3921L24.087 19.6047C23.8584 19.7723 23.5481 19.7723 23.3194 19.6059C23.0896 19.4394 22.9944 19.144 23.0828 18.8756L23.7225 16.9191L22.0548 15.7122C21.826 15.547 21.7298 15.2515 21.8169 14.9831C21.9042 14.7137 22.1543 14.5325 22.4374 14.5325L24.4969 14.5359L25.1287 12.5772C25.2159 12.3077 25.466 12.1255 25.749 12.1255C26.0321 12.1255 26.2835 12.3077 26.3695 12.5772L27.0024 14.5359L29.0607 14.5325C29.3427 14.5325 29.594 14.7137 29.6823 14.9831C29.7696 15.2515 29.6733 15.547 29.4434 15.7123L27.7768 16.9191L28.4165 18.8756C28.5038 19.144 28.4086 19.4394 28.1799 19.6059C28.0656 19.6885 27.9308 19.7304 27.7961 19.7304Z" fill="#5A75AD"/>
<path fill-rule="evenodd" clip-rule="evenodd" d="M35.9329 16.9327C36.0676 16.9327 36.2023 16.9747 36.3178 17.0584L36.7322 17.3607L36.5725 16.8727C36.4843 16.6033 36.5804 16.3078 36.8103 16.1414L37.2258 15.8402L36.713 15.8413C36.43 15.8413 36.1774 15.659 36.0913 15.3896L35.9329 14.9004L35.7754 15.3895C35.6883 15.659 35.438 15.8413 35.155 15.8413L34.6399 15.8402L35.0554 16.1413C35.2853 16.3077 35.3815 16.6033 35.2931 16.8728L35.1336 17.3607L35.5491 17.0584C35.6634 16.9746 35.7981 16.9328 35.9329 16.9327ZM37.9798 19.7304C37.8451 19.7304 37.7104 19.6885 37.596 19.6048L35.9328 18.3921L34.2708 19.6047C34.0421 19.7723 33.7318 19.7723 33.5031 19.6059C33.2733 19.4394 33.1782 19.144 33.2665 18.8756L33.9063 16.9191L32.2386 15.7122C32.0087 15.547 31.9135 15.2515 32.0007 14.9831C32.0879 14.7137 32.3381 14.5325 32.6212 14.5325L34.6807 14.5359L35.3124 12.5772C35.3995 12.3077 35.6498 12.1255 35.9328 12.1255C36.2159 12.1255 36.4672 12.3077 36.5532 12.5772L37.1862 14.5359L39.2445 14.5325C39.5265 14.5325 39.7778 14.7137 39.8649 14.9831C39.9532 15.2515 39.857 15.547 39.6271 15.7123L37.9606 16.9191L38.6003 18.8756C38.6875 19.144 38.5923 19.4394 38.3636 19.6059C38.2494 19.6885 38.1145 19.7304 37.9798 19.7304Z" fill="#5A75AD"/>
<path fill-rule="evenodd" clip-rule="evenodd" d="M35.7505 45.517C35.6361 45.517 35.5217 45.4865 35.4165 45.4242C32.7253 43.821 31.3802 42.0457 31.4175 40.1482C31.4787 37.0414 35.2772 34.9412 35.4391 34.8529C35.755 34.6808 36.1513 34.7986 36.3233 35.1144C36.4955 35.4303 36.3788 35.8266 36.0629 35.9987C36.0301 36.0169 32.7648 37.8272 32.7207 40.1765C32.6948 41.5702 33.8269 42.9594 36.0844 44.3045C36.3936 44.4879 36.4955 44.8887 36.3109 45.1978C36.1887 45.4027 35.9724 45.517 35.7505 45.517ZM15.7503 45.517C15.5283 45.517 15.3109 45.4027 15.1898 45.1978C15.0054 44.8886 15.106 44.4879 15.4162 44.3045C17.6739 42.9594 18.8049 41.5702 18.7789 40.1765C18.7359 37.8271 15.4706 36.0168 15.4378 35.9987C15.1219 35.8254 15.0053 35.4303 15.1773 35.1144C15.3495 34.7986 15.7446 34.6808 16.0605 34.8529C16.2224 34.9412 20.022 37.0414 20.0832 40.1482C20.1206 42.0457 18.7743 43.821 16.0831 45.4242C15.979 45.4865 15.8634 45.517 15.7503 45.517Z" fill="#5A75AD"/>
<path fill-rule="evenodd" clip-rule="evenodd" d="M4.66626 2.21298C3.22621 2.21298 2.05429 3.38369 2.05429 4.82498L2.05438 32.1618C2.05438 33.6019 3.22612 34.7737 4.66627 34.7737H46.8337C48.2739 34.7737 49.4456 33.6019 49.4456 32.1618L49.4457 4.8249C49.4457 3.38361 48.2738 2.21293 46.8336 2.21293L4.66626 2.21298ZM46.8337 36.0781H4.66626C2.50719 36.0781 0.75 34.3209 0.75 32.1618L0.750096 4.82495C0.750096 2.66473 2.50716 0.908724 4.66627 0.908724L46.8337 0.908691C48.9939 0.908691 50.7499 2.66473 50.7499 4.82498L50.75 32.1618C50.75 34.3209 48.9939 36.0781 46.8337 36.0781Z" fill="#5A75AD"/>
<path fill-rule="evenodd" clip-rule="evenodd" d="M4.77306 32.0566H46.7299V4.93031H4.77306V32.0566ZM46.8352 33.3608H4.66774C4.00655 33.3608 3.46875 32.823 3.46875 32.1619L3.46878 4.825C3.46878 4.1638 4.00654 3.62604 4.66774 3.62604L46.8352 3.62598C47.4963 3.62598 48.0341 4.16383 48.0341 4.82503V32.1618C48.0341 32.823 47.4963 33.3609 46.8352 33.3608Z" fill="#5A75AD"/>
<path fill-rule="evenodd" clip-rule="evenodd" d="M14.2028 47.5936H37.3007V46.5554C37.3007 45.9825 36.8341 45.5161 36.2624 45.5161L15.241 45.516C14.6681 45.516 14.2027 45.9825 14.2027 46.5554L14.2028 47.5936ZM37.9528 48.8979H13.5507C13.1906 48.8979 12.8984 48.6058 12.8984 48.2458L12.8985 46.5554C12.8985 45.2636 13.9491 44.2129 15.2409 44.2129L36.2624 44.2129C37.5542 44.2129 38.6048 45.2636 38.6048 46.5554L38.6049 48.2457C38.6049 48.6058 38.3128 48.8979 37.9528 48.8979Z" fill="#5A75AD"/>
</svg>
