<svg width="52" height="56" viewBox="0 0 52 56" fill="none" xmlns="http://www.w3.org/2000/svg">
<path d="M36.6731 26.3402C37.1867 19.6277 32.3292 13.7826 25.8234 13.2848C19.3177 12.7869 13.6273 17.8249 13.1136 24.5374C12.6 31.2499 17.4576 37.095 23.9633 37.5928C30.4691 38.0906 36.1594 33.0527 36.6731 26.3402Z" stroke="#5A75AD" stroke-width="2" stroke-miterlimit="10" stroke-linecap="round" stroke-linejoin="round"/>
<path d="M38.4266 38.8766V38.8766C38.3678 38.9302 38.2767 38.9261 38.223 38.8673L37.2887 37.845C36.7528 37.2586 36.7611 36.364 37.2475 35.7359C39.7164 32.5482 41.0518 28.4133 40.6867 24.0312C39.9349 15.0085 32.2585 8.35495 23.5411 9.17012C14.8237 9.9853 8.36631 17.9605 9.11811 26.9832C9.86992 36.006 17.5462 42.6595 26.2636 41.8443C28.9432 41.5937 31.4092 40.6666 33.5179 39.2406C34.1717 38.7985 35.0623 38.8579 35.5948 39.4405V39.4405C36.1502 40.0482 36.0404 41.0149 35.8966 41.8255C35.7764 42.5027 35.9575 43.2273 36.4506 43.7669L44.884 52.9953C46.137 54.3663 48.2232 54.4595 49.5984 53.2058C51.0382 51.893 51.1442 49.6165 49.8323 48.1809L41.4529 39.0118C40.6486 38.1316 39.3094 38.0718 38.4266 38.8766Z" stroke="#5A75AD" stroke-width="2" stroke-miterlimit="10" stroke-linecap="round" stroke-linejoin="round"/>
<path d="M42.7025 39.815L45.1777 35.6933C45.9811 34.3556 45.7913 32.6459 44.714 31.517V31.517C43.8787 30.6416 43.583 29.3973 43.7822 28.2039C43.8178 27.9908 43.85 27.7767 43.8788 27.5614C44.0397 26.3612 44.7055 25.2639 45.7769 24.6998V24.6998C47.0761 24.0157 47.7856 22.5716 47.5332 21.1252L47.2686 19.6088C47.0055 18.101 45.7754 16.9498 44.2535 16.7871V16.7871C43.0411 16.6575 42.0084 15.8823 41.4017 14.8247C41.2906 14.631 41.1764 14.4394 41.0592 14.25C40.4261 13.2273 40.2389 11.9675 40.6947 10.8545V10.8545C41.2512 9.49512 40.8696 7.932 39.7492 6.98211L38.5748 5.98641C37.4265 5.01291 35.7698 4.92528 34.5252 5.7722V5.7722C33.5318 6.44825 32.2599 6.51821 31.1326 6.10228C31.0158 6.05922 30.8986 6.01725 30.7809 5.97639C29.4235 5.50529 28.2795 4.50107 27.851 3.12971L27.2549 1.2221V1.2221C27.2532 1.21634 27.2479 1.2124 27.2418 1.2124H23.2956C21.777 1.2124 20.4428 2.21995 20.0272 3.68054V3.68054C19.6985 4.83571 18.7758 5.70988 17.6508 6.13042C17.407 6.22156 17.1654 6.31748 16.9263 6.41805C15.8337 6.87749 14.575 6.85104 13.5781 6.20998V6.20998C12.3762 5.43708 10.8103 5.54038 9.72034 6.46448L8.5507 7.45611C7.36889 8.45807 6.98622 10.1177 7.60997 11.536V11.536C8.10136 12.6533 7.95475 13.9348 7.35814 14.9997C7.24999 15.1927 7.14491 15.3877 7.04298 15.5847C6.49016 16.6531 5.4959 17.4533 4.30359 17.6126V17.6126C2.86244 17.805 1.71255 18.9098 1.46261 20.3421L1.19823 21.8571C0.932498 23.3799 1.70191 24.8957 3.08797 25.5801V25.5801C4.18885 26.1236 4.89936 27.211 5.11458 28.4198C5.20327 28.9179 5.31016 29.4096 5.43452 29.8941C5.59905 30.535 5.45465 31.2225 5.0104 31.7129V31.7129L4.91788 31.815C3.63089 33.2355 3.40354 35.3226 4.35451 36.9869L4.74875 37.6768C5.50112 38.9935 7.03801 39.6484 8.50884 39.279V39.279C9.68393 38.9839 10.9129 39.3574 11.8356 40.1427C11.8474 40.1528 11.8592 40.1628 11.8711 40.1729C12.0441 40.3192 12.2197 40.4626 12.3976 40.603C13.3328 41.3408 13.9321 42.4512 13.8814 43.6413V43.6413C13.8194 45.0963 14.7046 46.4245 16.0714 46.9271L17.5085 47.4555C18.9256 47.9767 20.5269 47.475 21.4093 46.2497V46.2497C22.0979 45.2935 23.2513 44.787 24.4296 44.787V44.787C24.7083 44.787 24.9857 44.7811 25.2616 44.7694C26.4409 44.7194 27.6072 45.1772 28.3214 46.1169V46.1169C29.1871 47.2559 30.695 47.6965 32.0377 47.2026L36.7718 45.4616" stroke="#5A75AD" stroke-width="2" stroke-miterlimit="10" stroke-linecap="round" stroke-linejoin="round"/>
<path d="M16.2462 27.495C16.1208 27.4037 16.0312 27.2484 16.0312 27.0657C16.0312 26.7735 16.2641 26.5451 16.5506 26.5451C16.7028 26.5451 16.8013 26.5908 16.8729 26.6456C17.3923 27.0658 17.9474 27.3032 18.6279 27.3032C19.3084 27.3032 19.7382 26.9744 19.7382 26.4994V26.4812C19.7382 26.0245 19.4875 25.7779 18.3235 25.5038C16.9893 25.175 16.2372 24.7731 16.2372 23.5949V23.5766C16.2372 22.4805 17.1326 21.7224 18.3772 21.7224C19.1651 21.7224 19.8008 21.9325 20.3649 22.3161C20.4903 22.3892 20.6067 22.5445 20.6067 22.7637C20.6067 23.0559 20.3739 23.2843 20.0874 23.2843C19.9799 23.2843 19.8904 23.2569 19.8009 23.2021C19.3173 22.8824 18.8518 22.718 18.3593 22.718C17.7146 22.718 17.3385 23.056 17.3385 23.4761V23.4944C17.3385 23.9876 17.6251 24.2068 18.8338 24.4991C20.159 24.8279 20.8395 25.312 20.8395 26.3715V26.3898C20.8395 27.5864 19.9173 28.2988 18.6011 28.2988C17.7504 28.2988 16.9446 28.0248 16.2462 27.495Z" fill="#5A75AD"/>
<path d="M22.1406 27.6411V22.38C22.1406 22.0603 22.3824 21.8137 22.6958 21.8137H26.34C26.6086 21.8137 26.8325 22.0421 26.8325 22.3161C26.8325 22.5992 26.6086 22.8184 26.34 22.8184H24.0731C23.6141 22.8184 23.2419 23.1906 23.2419 23.6496C23.2419 24.1087 23.6141 24.4808 24.0731 24.4808H25.9371C26.2057 24.4808 26.4296 24.7092 26.4296 24.9923C26.4296 25.2663 26.2057 25.4856 25.9371 25.4856H24.1005C23.6263 25.4856 23.2419 25.87 23.2419 26.3441C23.2419 26.8183 23.6263 27.2027 24.1005 27.2027H26.3848C26.6534 27.2027 26.8772 27.4311 26.8772 27.7051C26.8772 27.9882 26.6534 28.2074 26.3848 28.2074H22.6958C22.3824 28.2074 22.1406 27.9608 22.1406 27.6411Z" fill="#5A75AD"/>
<path d="M27.8594 25.0288V25.0106C27.8594 23.2112 29.2204 21.7041 31.1454 21.7041C33.0705 21.7041 34.4136 23.1929 34.4136 24.9923V25.0106C34.4136 26.81 33.0526 28.317 31.1276 28.317C29.2024 28.317 27.8594 26.8282 27.8594 25.0288ZM33.2586 25.0288V25.0106C33.2586 23.7684 32.3721 22.7363 31.1275 22.7363C29.8829 22.7363 29.0144 23.7501 29.0144 24.9923V25.0106C29.0144 26.2528 29.9008 27.2758 31.1454 27.2758C32.39 27.2758 33.2586 26.271 33.2586 25.0288Z" fill="#5A75AD"/>
</svg>
