<svg width="51" height="51" viewBox="0 0 51 51" fill="none" xmlns="http://www.w3.org/2000/svg">
<path d="M25.0973 0.212442C24.7828 0.209293 24.4939 0.392285 24.3551 0.687686L23.3997 2.71244H3.4209C1.58865 2.71244 0.0859375 4.18583 0.0859375 6.04413V34.3791C0.0859375 37.6159 2.70039 40.2124 5.91764 40.2124H19.7181L17.8398 45.2108H15.0843C13.2358 45.2108 11.7493 46.7135 11.7493 48.5458V49.3758C11.7476 49.8386 12.1232 50.2142 12.5859 50.2124H37.5859C38.0463 50.2108 38.4178 49.8362 38.416 49.3758V48.5458C38.416 46.6875 36.9214 45.2108 35.0892 45.2108H32.332L30.4554 40.2124H44.2542C47.4715 40.2124 50.0859 37.6224 50.0859 34.3791V6.04413C50.0859 4.21187 48.6011 2.71244 46.7526 2.71244H26.7721L25.8167 0.687686C25.6818 0.399812 25.4038 0.217041 25.0973 0.212442ZM3.42095 4.37909H22.6137L22.0863 5.4989L17.0066 6.27364C16.3381 6.37569 16.0715 7.23594 16.5557 7.72869L20.2325 11.4722L19.3601 16.7635C19.2475 17.4592 19.9448 17.9884 20.5417 17.6603L25.0811 15.1652L29.6221 17.6587C30.2185 17.9856 30.9152 17.4568 30.8038 16.7619L29.9395 11.4738L33.6114 7.72221C34.0962 7.22895 33.8295 6.36825 33.1605 6.26712L28.0873 5.4989L27.5583 4.37909H46.7527C47.6674 4.37909 48.4193 5.10639 48.4193 6.04413V31.8807H33.4161V26.8807C33.4161 25.0486 31.9472 23.5458 30.0876 23.5458H27.586V20.4696C27.586 19.8823 27.4662 19.2411 27.0668 18.6792C26.6673 18.1174 26.0117 17.7124 25.086 17.7124C24.2751 17.7124 23.6813 18.0368 23.2663 18.5018C22.8513 18.9669 22.6376 19.504 22.4411 20.0448L21.1244 23.6809L18.5593 24.3221C18.1054 23.8463 17.4675 23.5458 16.7494 23.5458H15.0844C13.6975 23.5458 12.586 24.6719 12.586 26.0425V31.8807H1.75428V6.04413C1.75428 5.10639 2.50273 4.37918 3.42095 4.37909ZM9.67909 8.52948C9.36605 8.52633 9.07882 8.7109 8.94016 9.00476L7.4509 12.1623L4.12082 12.6685C3.45242 12.7693 3.18409 13.628 3.66672 14.122L6.0772 16.578L5.50754 20.0497C5.39437 20.7446 6.09027 21.2745 6.68755 20.9481L9.66769 19.3107L12.6462 20.9481C13.2453 21.2792 13.9467 20.7446 13.8295 20.0464L13.2614 16.5796L15.6703 14.1203C16.1576 13.6272 15.8904 12.7637 15.2195 12.6636L11.8894 12.1623L10.4017 9.00476C10.2659 8.71625 9.98643 8.53257 9.67909 8.52948ZM40.5157 8.52948C40.2026 8.52633 39.9154 8.7109 39.7767 9.00476L38.2859 12.1623L34.9558 12.6685C34.2874 12.7693 34.0191 13.628 34.5017 14.122L36.9138 16.578L36.3441 20.0497C36.231 20.7446 36.9269 21.2745 37.5241 20.9481L40.5027 19.3107L43.4828 20.9481C44.0814 21.277 44.7806 20.7434 44.6644 20.0464L44.0964 16.5796L46.5069 14.1203C46.9942 13.6272 46.727 12.7637 46.056 12.6636L42.726 12.1623L41.2367 9.00476C41.1011 8.71688 40.8224 8.5332 40.5157 8.52948ZM25.7077 19.6459C25.8553 19.8535 25.9193 20.1335 25.9193 20.4695V24.3757C25.9176 24.8385 26.2931 25.2141 26.7559 25.2123H30.0876C30.9987 25.2123 31.7478 25.9428 31.7478 26.8806V32.7107C31.7478 34.1102 30.6269 35.2156 29.251 35.2156H21.7527C21.614 35.2156 20.9745 35.048 20.3497 34.8396C19.9815 34.7168 19.6184 34.5842 19.2413 34.4913C19.243 34.4532 19.2526 34.4173 19.2526 34.3789V26.0423C19.2526 25.9821 19.2391 25.9258 19.2347 25.8666L21.9544 25.1878C22.2241 25.1217 22.4448 24.9261 22.5403 24.6654L24.01 20.611C24.1844 20.1309 24.3615 19.78 24.5146 19.6084C24.6677 19.4368 24.8175 19.3804 25.0859 19.3806C25.4153 19.3807 25.5862 19.4752 25.7077 19.6459ZM1.75428 33.549H12.586V34.3791C12.586 35.7725 13.7138 36.8791 15.0844 36.8791H16.7494C17.4777 36.8791 18.1234 36.567 18.5788 36.0767C18.8532 36.1145 19.2893 36.2424 19.8272 36.4217C20.452 36.6299 21.0583 36.8758 21.7527 36.8758H29.251C31.2612 36.8758 32.9473 35.4642 33.3331 33.549H48.4193V34.3791C48.4193 36.6758 46.577 38.5458 44.2543 38.5458H5.91763C3.6179 38.5458 1.75422 36.7019 1.75422 34.3791L1.75428 33.549ZM21.4939 40.2124H28.6732L30.5482 45.2108H19.6238L21.4939 40.2124Z" fill="#5A75AD"/>
</svg>
