<svg width="54" height="52" viewBox="0 0 54 52" fill="none" xmlns="http://www.w3.org/2000/svg">
<path d="M28.6289 48.1267C27.2747 49.4809 25.3477 50.3663 23.2643 50.3663H9.35807C5.19141 50.3663 1.75391 46.9809 1.75391 42.7621C1.75391 38.5955 5.13932 35.158 9.35807 35.158H23.2643C26.3372 35.158 28.9935 36.9809 30.1914 39.6371" stroke="#5A75AD" stroke-width="3" stroke-miterlimit="10" stroke-linecap="round"/>
<path d="M28.6289 48.1267C27.3268 49.4288 25.6602 49.9496 25.5039 50.0017C24.6185 50.2621 23.7852 50.3663 23.2643 50.3663H9.35807C5.19141 50.3663 1.75391 46.9809 1.75391 42.7621C1.75391 38.5955 5.13932 35.158 9.35807 35.158H23.2643C23.8372 35.158 24.6185 35.21 25.5039 35.5225C28.7331 36.5642 30.0872 39.4809 30.1914 39.6892C30.2956 39.9496 30.3997 40.2621 30.5039 40.5225" stroke="#5A75AD" stroke-width="3" stroke-miterlimit="10" stroke-linecap="round"/>
<path d="M23.3672 39.9497C23.8359 40.9913 24.513 41.6684 24.7214 41.9288C25.0339 42.2934 26.1276 43.283 27.8464 43.8038C28.7318 44.0642 29.5651 44.1684 30.0859 44.1684H43.9922C48.1589 44.1684 51.5964 40.783 51.5964 36.5642C51.5964 32.3976 48.2109 28.9601 43.9922 28.9601H30.0859C29.513 28.9601 28.7318 29.0122 27.8464 29.3247C27.5339 29.4288 25.9193 29.9497 24.5651 31.4601" stroke="#5A75AD" stroke-width="3" stroke-miterlimit="10" stroke-linecap="round"/>
<path d="M51.7539 26.7205V22.3455H46.8581C46.3372 19.9497 45.3997 17.658 44.0977 15.6268L47.5872 12.1372L41.3372 5.93925L37.8477 9.48092C35.8164 8.17883 33.5247 7.24133 31.1289 6.7205V1.77258H22.3789V6.66842C19.9831 7.18925 17.6914 8.12675 15.6602 9.42883L12.1706 5.93925L5.97266 12.1372L9.46224 15.6268C8.16016 17.658 7.22266 19.9497 6.70182 22.3455H1.75391V26.7205" stroke="#5A75AD" stroke-width="3" stroke-miterlimit="10"/>
<path d="M13.7852 26.7206C13.7852 19.5331 19.5664 13.7518 26.7539 13.7518C33.9414 13.7518 39.7227 19.5331 39.7227 26.7206" stroke="#5A75AD" stroke-width="3" stroke-miterlimit="10"/>
</svg>
