<svg width="51" height="58" viewBox="0 0 51 58" fill="none" xmlns="http://www.w3.org/2000/svg">
<path d="M20.1818 6.67603H30.8454C31.113 6.67081 31.3678 6.56085 31.5552 6.36978C31.7426 6.1787 31.8475 5.92176 31.8475 5.65415C31.8475 5.38653 31.7425 5.1296 31.5551 4.93854C31.3678 4.74748 31.1129 4.63753 30.8453 4.63232H20.1818C19.9143 4.63754 19.6594 4.74749 19.472 4.93856C19.2847 5.12963 19.1797 5.38656 19.1797 5.65418C19.1797 5.92179 19.2847 6.17873 19.472 6.3698C19.6594 6.56086 19.9143 6.67082 20.1818 6.67603Z" fill="#5A75AD"/>
<path d="M27.7343 52.0479H23.2917C23.024 52.0529 22.7691 52.1628 22.5816 52.3539C22.3941 52.545 22.2891 52.802 22.2891 53.0697C22.2891 53.3374 22.3941 53.5945 22.5816 53.7855C22.7691 53.9766 23.0241 54.0865 23.2917 54.0916H27.7343C28.0019 54.0863 28.2568 53.9764 28.4441 53.7853C28.6315 53.5943 28.7365 53.3373 28.7365 53.0697C28.7365 52.8021 28.6315 52.5452 28.4441 52.3541C28.2568 52.163 28.0019 52.0531 27.7343 52.0479Z" fill="#5A75AD"/>
<path d="M45.6446 15.0445H42.8754V5.77601C42.8738 4.42144 42.335 3.1228 41.3772 2.16497C40.4193 1.20715 39.1207 0.668338 37.7661 0.666748H13.2616C11.9071 0.668338 10.6084 1.20715 9.6506 2.16497C8.69277 3.1228 8.15396 4.42144 8.15237 5.77601V15.0445H5.86317C4.5086 15.0461 3.20996 15.5849 2.25214 16.5428C1.29431 17.5006 0.755499 18.7992 0.753906 20.1538V30.6378C0.755499 31.9924 1.29431 33.291 2.25214 34.2488C3.20996 35.2067 4.5086 35.7455 5.86317 35.7471H8.15237V52.7813C8.15396 54.1358 8.69277 55.4345 9.6506 56.3923C10.6084 57.3501 11.9071 57.8889 13.2616 57.8905H37.7662C39.1207 57.8889 40.4194 57.3501 41.3772 56.3923C42.335 55.4345 42.8738 54.1358 42.8754 52.7813V35.7471H45.6446C46.9992 35.7455 48.2979 35.2067 49.2557 34.2488C50.2135 33.291 50.7523 31.9924 50.7539 30.6378V20.1538C50.7523 18.7992 50.2135 17.5006 49.2557 16.5428C48.2978 15.5849 46.9992 15.0461 45.6446 15.0445ZM13.2616 2.71045H37.7662C38.5789 2.71134 39.3581 3.0346 39.9328 3.60932C40.5076 4.18403 40.8308 4.96325 40.8317 5.77601V8.59709H10.1961V5.77601C10.197 4.96325 10.5202 4.18403 11.0949 3.60932C11.6697 3.0346 12.4489 2.71134 13.2616 2.71045ZM10.1961 10.6408H40.8317V15.0445H10.1961V10.6408ZM37.7662 55.8468H13.2616C12.4489 55.8459 11.6697 55.5227 11.0949 54.948C10.5202 54.3733 10.197 53.594 10.1961 52.7813V50.2935H40.8317V52.7813C40.8308 53.594 40.5076 54.3733 39.9328 54.948C39.3581 55.5227 38.5789 55.8459 37.7662 55.8468ZM40.8317 48.2498H10.1961V35.7471H17.8819C18.3551 35.7485 18.8201 35.8708 19.2328 36.1024C19.6455 36.334 19.9922 36.6671 20.24 37.0703L24.2845 43.6973C24.377 43.8454 24.5056 43.9674 24.6583 44.052C24.8109 44.1366 24.9826 44.181 25.1571 44.181C25.3317 44.181 25.5033 44.1366 25.656 44.052C25.8087 43.9674 25.9373 43.8454 26.0298 43.6973L30.0633 37.0733C30.3109 36.6695 30.6575 36.3356 31.0704 36.1035C31.4833 35.8714 31.9487 35.7487 32.4224 35.7471H40.8317L40.8317 48.2498ZM48.7102 30.6378C48.7093 31.4506 48.3861 32.2298 47.8113 32.8045C47.2366 33.3792 46.4574 33.7025 45.6446 33.7033H32.4224C31.5983 33.7062 30.7886 33.9195 30.0701 34.3231C29.3516 34.7267 28.7482 35.3072 28.317 36.0095L25.1556 41.2026L21.9843 36.0065C21.5535 35.3048 20.9504 34.7249 20.2324 34.3218C19.5144 33.9187 18.7053 33.7058 17.8819 33.7034H5.86317C5.05041 33.7025 4.27119 33.3792 3.69648 32.8045C3.12176 32.2298 2.7985 31.4506 2.79761 30.6378V20.1538C2.7985 19.341 3.12176 18.5618 3.69648 17.9871C4.27119 17.4124 5.05041 17.0891 5.86317 17.0882H45.6446C46.4574 17.0891 47.2366 17.4124 47.8113 17.9871C48.386 18.5618 48.7093 19.341 48.7102 20.1538L48.7102 30.6378Z" fill="#5A75AD"/>
<path d="M15.5731 22.7083H12.9736L12.1702 20.2375C12.0672 19.9202 11.8663 19.6436 11.5965 19.4475C11.3266 19.2514 11.0015 19.1458 10.6679 19.1458C10.3343 19.1458 10.0092 19.2514 9.73934 19.4475C9.46946 19.6436 9.26859 19.9202 9.16555 20.2375L8.36324 22.7083H5.76275C5.42919 22.7085 5.10423 22.8142 4.83444 23.0104C4.56464 23.2065 4.36385 23.483 4.26083 23.8003C4.15781 24.1175 4.15785 24.4593 4.26093 24.7765C4.36402 25.0937 4.56487 25.3702 4.8347 25.5663L6.93729 27.0941L6.13397 29.5669C6.03105 29.8842 6.03122 30.226 6.13446 30.5433C6.23771 30.8605 6.43873 31.1369 6.70871 31.3329C6.97869 31.5289 7.30379 31.6344 7.6374 31.6342C7.97102 31.6341 8.29603 31.5284 8.56587 31.3322L10.6684 29.8054L12.771 31.3332C13.0409 31.5292 13.366 31.6348 13.6996 31.6348C14.0332 31.6347 14.3582 31.5291 14.6281 31.333C14.8979 31.1369 15.0988 30.8605 15.2019 30.5432C15.305 30.2259 15.305 29.8842 15.2019 29.5669L14.3986 27.0941L16.5002 25.5673C16.7647 25.3684 16.9606 25.0919 17.0603 24.7763C17.1601 24.4607 17.1589 24.1219 17.0568 23.807C16.9547 23.4922 16.7569 23.2171 16.4909 23.0201C16.2249 22.8231 15.9041 22.7141 15.5731 22.7083ZM12.9227 25.6401C12.6531 25.8362 12.4526 26.1127 12.3498 26.4298C12.2471 26.747 12.2475 27.0885 12.3509 27.4054L12.8169 28.8404L11.5984 27.9553C10.4908 27.1005 9.39212 28.2192 8.51893 28.8405L8.98489 27.4054C9.08836 27.0882 9.08855 26.7463 8.98545 26.4289C8.88235 26.1115 8.68126 25.835 8.4111 25.6392L7.19066 24.752H8.69964C9.03341 24.7524 9.35871 24.6469 9.62875 24.4508C9.89879 24.2546 10.0997 23.9778 10.2025 23.6603L10.6685 22.2263L11.1335 23.6583C11.2354 23.9765 11.436 24.2541 11.7062 24.4507C11.9764 24.6473 12.3022 24.7529 12.6363 24.752H14.1451L12.9227 25.6401Z" fill="#5A75AD"/>
<path d="M30.6554 22.7083H28.0559L27.2536 20.2375C27.1504 19.9201 26.9494 19.6436 26.6795 19.4475C26.4095 19.2514 26.0844 19.1458 25.7507 19.1458C25.417 19.1458 25.0919 19.2514 24.822 19.4475C24.552 19.6436 24.351 19.9201 24.2479 20.2375L23.4456 22.7083H20.846C20.5122 22.7083 20.1871 22.814 19.9171 23.0102C19.6471 23.2064 19.4461 23.483 19.343 23.8003C19.2399 24.1177 19.2398 24.4596 19.3429 24.777C19.446 25.0945 19.647 25.3711 19.9169 25.5673L22.0205 27.0941L21.2172 29.5649C21.1202 29.8814 21.1244 30.2202 21.2292 30.5342C21.334 30.8481 21.5343 31.1215 21.8019 31.3162C22.0696 31.5109 22.3914 31.6172 22.7223 31.6202C23.0533 31.6233 23.377 31.5229 23.6482 31.3331L25.7507 29.8055L27.8543 31.3332C28.1253 31.5227 28.4488 31.623 28.7795 31.62C29.1102 31.617 29.4318 31.5109 29.6993 31.3165C29.9669 31.122 30.1671 30.849 30.2721 30.5354C30.3771 30.2217 30.3817 29.8832 30.2851 29.5668L29.4819 27.0941L31.5845 25.5673C31.8487 25.3681 32.0442 25.0913 32.1437 24.7757C32.2432 24.4601 32.2417 24.1212 32.1394 23.8065C32.0371 23.4918 31.8392 23.2168 31.5732 23.0199C31.3071 22.823 30.9863 22.7141 30.6554 22.7083ZM28.006 25.6401C27.7364 25.8362 27.5358 26.1127 27.4331 26.4298C27.3304 26.747 27.3308 27.0885 27.4342 27.4054L27.9002 28.8404C27.0242 28.2159 25.932 27.1051 24.8227 27.9534L23.6022 28.8404L24.0682 27.4054C24.1716 27.088 24.1718 26.746 24.0687 26.4285C23.9656 26.111 23.7646 25.8343 23.4945 25.6381L22.273 24.752H23.7818C24.1156 24.7524 24.4409 24.6469 24.711 24.4508C24.981 24.2546 25.1819 23.9778 25.2847 23.6603L25.7507 22.2263L26.2167 23.6613C26.3197 23.9786 26.5207 24.2551 26.7907 24.4511C27.0607 24.6471 27.3859 24.7524 27.7195 24.752H29.2284L28.006 25.6401Z" fill="#5A75AD"/>
<path d="M45.7452 22.7083H43.1456L42.3433 20.2375C42.2401 19.9201 42.0392 19.6436 41.7692 19.4475C41.4992 19.2514 41.1741 19.1458 40.8404 19.1458C40.5068 19.1458 40.1817 19.2514 39.9117 19.4475C39.6417 19.6436 39.4408 19.9201 39.3376 20.2375L38.5353 22.7083H35.9358C35.6021 22.7083 35.2769 22.814 35.0069 23.0102C34.7369 23.2064 34.536 23.483 34.4328 23.8003C34.3297 24.1177 34.3297 24.4596 34.4328 24.777C34.5359 25.0945 34.7368 25.3711 35.0068 25.5673L37.1103 27.0941L36.306 29.5669C36.2095 29.8833 36.2142 30.222 36.3193 30.5356C36.4245 30.8493 36.6249 31.1223 36.8926 31.3166C37.1603 31.5109 37.482 31.6169 37.8128 31.6197C38.1436 31.6224 38.467 31.5219 38.738 31.3321L40.8405 29.8054C41.4591 30.1688 43.1328 31.7432 43.8721 31.6355C44.1207 31.6329 44.3652 31.5721 44.586 31.458C44.8069 31.344 44.998 31.1798 45.144 30.9787C45.2901 30.7775 45.3871 30.545 45.4271 30.2996C45.4672 30.0543 45.4494 29.803 45.3749 29.5658L44.5707 27.094L46.6742 25.5673C46.9385 25.368 47.134 25.0913 47.2335 24.7757C47.3329 24.46 47.3314 24.1212 47.2292 23.8065C47.1269 23.4918 46.9289 23.2168 46.6629 23.0199C46.3969 22.8231 46.0761 22.7141 45.7452 22.7083ZM43.0948 25.6401C42.8251 25.8364 42.6245 26.113 42.5218 26.4303C42.419 26.7477 42.4195 27.0894 42.523 27.4064L42.9899 28.8404C42.1137 28.2164 41.0196 27.1022 39.9114 27.9544L38.691 28.8404L39.158 27.4054C39.2613 27.088 39.2615 26.746 39.1584 26.4285C39.0553 26.111 38.8543 25.8343 38.5842 25.6381L37.3627 24.752H38.8715C39.2053 24.7524 39.5306 24.647 39.8007 24.4508C40.0707 24.2546 40.2716 23.9779 40.3745 23.6604L40.8404 22.2264L41.3065 23.6614C41.4095 23.9787 41.6104 24.2552 41.8805 24.4511C42.1505 24.6471 42.4757 24.7525 42.8093 24.7521H44.3181L43.0948 25.6401Z" fill="#5A75AD"/>
</svg>
