<svg width="248" height="48" viewBox="0 0 248 48" fill="none" xmlns="http://www.w3.org/2000/svg">
<path d="M34.5946 0.93808V12.4673H11.5327L22.6125 1.38754C22.8985 1.10152 23.2901 0.93808 23.6987 0.93808H34.5946ZM31.5267 18.2353H11.5327V12.4673H1.53574C0.687899 12.4673 9.15527e-05 13.1551 9.15527e-05 14.003V26.6967C9.15527e-05 28.3924 1.3723 29.7646 3.06797 29.7646H23.062V35.5292H33.059C33.9068 35.5292 34.5946 34.8414 34.5946 33.9935V21.2998C34.5946 19.6109 33.2224 18.2353 31.5267 18.2353ZM9.15527e-05 35.5292V47.0618H10.896C11.3046 47.0618 11.6928 46.9018 11.9822 46.6124L23.062 35.5292H9.15527e-05Z" fill="url(#paint0_linear_1_591)"/>
<path d="M55.3156 35.9004C52.1524 35.9004 49.8745 35.3454 48.4819 34.2353C47.0892 33.1253 46.3946 30.7112 46.3946 26.9964H50.2797C50.2797 29.7374 50.7087 31.3888 51.5702 31.954C52.4316 32.5158 53.6676 32.7985 55.285 32.7985C56.8785 32.7985 58.1145 32.5805 58.9998 32.1413C59.8817 31.702 60.3244 30.6874 60.3244 29.0938C60.3244 27.3403 59.7864 26.1962 58.7172 25.665C57.6447 25.1339 56.0852 24.7389 54.0354 24.4801C51.2842 23.9932 49.3263 23.3088 48.1618 22.4235C46.9973 21.5416 46.4151 19.9277 46.4151 17.5884C46.4151 14.4457 47.1369 12.4061 48.584 11.4629C50.0311 10.5197 52.2546 10.0498 55.2544 10.0498C58.3086 10.0498 60.5525 10.6048 61.9826 11.7149C63.4127 12.8249 64.1277 15.1947 64.1277 18.8244H60.2426C60.2426 16.0732 59.7966 14.4354 58.9011 13.9179C58.009 13.3969 56.7798 13.1381 55.2203 13.1381C53.6166 13.1381 52.3738 13.3356 51.4919 13.7306C50.61 14.1256 50.1673 15.2492 50.1673 17.1015C50.1673 18.7598 50.7291 19.8255 51.8494 20.3022C52.9696 20.7789 54.5019 21.1534 56.4393 21.4224C59.2995 21.8991 61.2982 22.5801 62.4354 23.4688C63.5727 24.3575 64.1413 26.0294 64.1413 28.4912C64.1413 31.3956 63.4365 33.3569 62.0302 34.375C60.6172 35.3896 58.3801 35.9004 55.3156 35.9004Z" fill="#7893CB"/>
<path d="M83.4771 28.5559C83.3239 30.6806 82.9119 32.2537 82.2343 33.2751C81.5567 34.3 80.6884 35.0049 79.6261 35.3965C78.574 35.788 76.9872 35.9821 74.8659 35.9821C71.3758 35.9821 69.0366 35.2398 67.8449 33.7553C66.6634 32.2809 66.0743 29.7476 66.0743 26.1485C66.0743 22.4542 66.6736 19.9004 67.8687 18.4874C69.0639 17.0743 71.3758 16.3661 74.7978 16.3661C78.2539 16.3661 80.5625 17.0777 81.7304 18.5044C82.8949 19.9277 83.4771 22.2873 83.4771 25.5799L83.4601 26.6525L69.8096 26.6695C69.8743 29.5944 70.225 31.4365 70.8651 32.1958C71.5699 33.03 72.9013 33.4488 74.8625 33.4488C76.0747 33.4488 76.9396 33.3569 77.4537 33.173C77.9679 32.9891 78.4241 32.5261 78.8191 31.7838C79.2141 31.0415 79.4865 29.9655 79.6397 28.5593H83.4771V28.5559ZM79.6431 24.4767C79.6329 22.1375 79.2822 20.6189 78.5944 19.9174C77.9066 19.2194 76.6467 18.8687 74.8149 18.8687C72.9285 18.8687 71.6176 19.2467 70.8821 20.006C70.2522 20.6665 69.9015 22.1579 69.8266 24.4767H79.6431Z" fill="#7893CB"/>
<path d="M96.8502 24.4426C96.8502 22.1886 96.6459 20.7278 96.2407 20.0536C95.8356 19.3829 94.9639 19.0458 93.6325 19.0458C92.3319 19.0458 91.358 19.468 90.7077 20.3124C90.1663 21.007 89.8462 22.0898 89.7475 23.5608V35.7982H85.8965V16.5261H89.7475V18.232C89.7475 18.2762 89.7441 18.3171 89.7407 18.3614C89.7338 18.4056 89.7202 18.4465 89.6998 18.4908L88.903 20.0026L89.0324 20.0502C89.315 19.4646 89.676 18.913 90.122 18.392C91.2593 17.0607 92.829 16.3933 94.8345 16.3933C94.9196 16.3933 95.0013 16.3933 95.0797 16.3933C97.4087 16.4682 98.9239 17.1901 99.6287 18.5555C99.7581 18.8142 99.8773 19.09 99.9862 19.3829C100.18 19.1105 100.398 18.8415 100.637 18.5691C101.937 17.1186 103.653 16.3933 105.788 16.3933C105.863 16.3933 105.938 16.3933 106.016 16.3933C108.311 16.4682 109.816 17.1935 110.525 18.5623C111.233 19.9345 111.59 21.7936 111.59 24.143V35.7948H107.756V24.4358C107.756 22.1818 107.549 20.721 107.14 20.0468C106.728 19.376 105.877 19.039 104.59 19.039C103.16 19.039 102.152 19.4612 101.566 20.3056C101.045 21.0309 100.752 22.1852 100.688 23.7685C100.688 23.8979 100.688 24.0238 100.688 24.143V35.7948H96.8537V24.4426H96.8502Z" fill="#7893CB"/>
<path d="M127.611 32.8427L127.301 32.761C126.9 33.4113 126.525 33.9221 126.171 34.2966C125.82 34.6712 125.384 34.9912 124.863 35.2568C124.342 35.5224 123.719 35.7131 122.994 35.8255C122.269 35.9378 121.445 35.9957 120.525 35.9957C119.885 35.9957 119.232 35.9446 118.561 35.8425C117.89 35.7403 117.264 35.5701 116.685 35.3385C116.106 35.107 115.592 34.7904 115.149 34.3954C114.703 34.0004 114.356 33.476 114.1 32.8189C113.845 32.1617 113.719 31.2662 113.719 30.1289C113.719 29.1755 113.845 28.3958 114.094 27.7897C114.342 27.1836 114.683 26.6559 115.118 26.2064C115.551 25.757 116.079 25.4028 116.695 25.1407C117.311 24.8819 117.979 24.6912 118.694 24.572C119.409 24.4529 120.117 24.3916 120.822 24.3916H126.736V23.1896C126.736 21.814 126.569 20.8266 126.232 20.2307C125.895 19.6348 125.442 19.2637 124.867 19.1173C124.291 18.9709 123.365 18.8993 122.088 18.8993C120.961 18.8993 120.079 18.9811 119.439 19.1445C118.799 19.3079 118.309 19.6689 117.968 20.2239C117.628 20.7823 117.458 21.6608 117.458 22.8661H113.818C113.838 21.2726 114.107 20.057 114.621 19.2194C115.135 18.3784 115.765 17.7757 116.514 17.408C117.264 17.0402 118.053 16.7746 118.888 16.6112C119.722 16.4478 120.832 16.366 122.218 16.366C124.472 16.366 126.099 16.5465 127.1 16.9108C128.102 17.2752 128.936 17.9357 129.603 18.8925C130.271 19.8527 130.601 21.3543 130.601 23.4007V35.7982H126.832V34.4328C126.832 34.3034 126.852 34.1638 126.896 34.0174C126.94 33.871 127.005 33.745 127.09 33.6361L127.611 32.8427ZM121.404 33.4624C122.075 33.4624 122.708 33.4181 123.304 33.3262C123.9 33.2343 124.441 33.0674 124.928 32.8291C125.415 32.5907 125.824 32.2979 126.154 31.9506C126.484 31.6033 126.678 31.2356 126.729 30.8474L126.811 26.6048H121.285C120.798 26.6048 120.335 26.6491 119.896 26.7342C119.456 26.8227 119.068 26.9862 118.724 27.2313C118.384 27.4731 118.115 27.8204 117.921 28.2698C117.727 28.7193 117.628 29.3083 117.628 30.0336C117.628 30.9121 117.73 31.5761 117.938 32.0323C118.142 32.4886 118.425 32.8121 118.782 33.0061C119.14 33.2002 119.545 33.3262 120.001 33.3807C120.461 33.4352 120.927 33.4624 121.404 33.4624Z" fill="#7893CB"/>
<path d="M145.258 25.0113C145.258 22.5529 145.006 20.9423 144.502 20.1762C143.998 19.4135 142.984 19.0287 141.455 19.0287C139.885 19.0287 138.714 19.4612 137.944 20.3294C137.423 20.8913 137.076 21.6608 136.906 22.638V35.8016H133.055V16.5295H136.906V18.2047C136.906 18.3035 136.889 18.3852 136.858 18.4499L136.061 19.7983L136.126 19.8323C136.409 19.4101 136.742 18.9777 137.134 18.5316C138.411 17.0675 140.198 16.3388 142.497 16.3388C142.691 16.3388 142.888 16.3456 143.082 16.3558C145.476 16.4954 147.076 17.3058 147.883 18.787C148.69 20.2647 149.096 22.3316 149.096 24.9874V35.8084H145.262V25.0113H145.258Z" fill="#7893CB"/>
<path d="M159.087 35.8016C157.106 35.8016 155.757 35.4645 155.049 34.7937C154.338 34.123 153.983 32.9142 153.983 31.1709V19.3897H150.766V16.5465H151.562C152.005 16.5465 152.41 16.4648 152.775 16.3013C153.139 16.1379 153.449 15.9132 153.708 15.6272C153.966 15.3411 154.171 14.9972 154.317 14.6023C154.464 14.2073 154.535 13.7715 154.535 13.2948V10.0464H158.403V13.2948C158.403 13.7919 158.342 14.2243 158.216 14.5852C158.09 14.9496 157.916 15.2526 157.695 15.4944C157.474 15.7395 157.211 15.9234 156.908 16.0562C156.605 16.1856 156.278 16.2639 155.934 16.2843V16.5431H164.467V19.3863H157.838V30.289C157.838 31.3071 158.046 31.971 158.464 32.2809C158.883 32.5907 159.496 32.744 160.31 32.744C161.328 32.744 162.721 32.744 164.488 32.744V35.7982C162.37 35.8016 160.572 35.8016 159.087 35.8016Z" fill="#7893CB"/>
<path d="M170.722 11.0543L170.739 14.5478H166.871V11.0543H170.722ZM166.871 16.5295H170.739V35.8016H166.871V16.5295Z" fill="#7893CB"/>
<path d="M186.78 16.4171H190.631V41.3109H186.78V34.2421C186.78 34.1434 186.8 34.0685 186.845 34.014L187.723 32.7133L187.512 32.6486C187.199 33.2002 186.722 33.7484 186.082 34.2898C184.846 35.3317 183.086 35.8493 180.801 35.8493C180.692 35.8493 180.58 35.8493 180.46 35.8493C177.903 35.7744 176.126 34.9265 175.132 33.3058C174.134 31.685 173.637 29.2777 173.637 26.0838C173.637 22.8866 174.134 20.469 175.132 18.8278C176.129 17.1867 177.903 16.3388 180.46 16.2843C180.559 16.2843 180.651 16.2843 180.736 16.2843C183.065 16.2843 184.846 16.8053 186.082 17.8438C186.709 18.375 187.185 18.9164 187.512 19.468L187.706 19.3863L186.845 18.1843C186.8 18.0992 186.78 18.0209 186.78 17.9562V16.4171ZM181.969 33.1696C183.603 33.1696 184.819 32.8053 185.609 32.08C186.334 31.4194 186.726 30.4456 186.78 29.1551V22.9479C186.726 21.671 186.334 20.6938 185.609 20.023C184.819 19.3079 183.603 18.9504 181.969 18.9504C180.28 18.9504 179.115 19.3897 178.482 20.2681C177.849 21.1466 177.532 23.0807 177.532 26.0702C177.532 29.0394 177.849 30.9632 178.482 31.8485C179.115 32.7269 180.277 33.1696 181.969 33.1696Z" fill="#7893CB"/>
<path d="M199.305 9.85233H203.156V35.805H199.305V9.85233Z" fill="#7893CB"/>
<path d="M209.902 11.0543L209.919 14.5478H206.051V11.0543H209.902ZM206.051 16.5295H209.919V35.8016H206.051V16.5295Z" fill="#7893CB"/>
<path d="M225.014 25.0113C225.014 22.5529 224.762 20.9423 224.258 20.1762C223.754 19.4135 222.739 19.0287 221.211 19.0287C219.641 19.0287 218.47 19.4612 217.7 20.3294C217.179 20.8912 216.832 21.6608 216.662 22.638V35.8016H212.811V16.5295H216.662V18.2047C216.662 18.3035 216.645 18.3852 216.614 18.4499L215.817 19.7983L215.882 19.8323C216.164 19.4101 216.498 18.9777 216.89 18.5316C218.167 17.0675 219.954 16.3388 222.252 16.3388C222.447 16.3388 222.644 16.3456 222.838 16.3558C225.232 16.4954 226.832 17.3058 227.639 18.787C228.446 20.2647 228.851 22.3316 228.851 24.9874V35.8084H225.017V25.0113H225.014Z" fill="#7893CB"/>
<path d="M233.853 25.4505L234.099 25.5799L242.727 16.5295H247.146L240.418 23.857L247.439 35.8016H243.295L237.769 26.3767L235.089 29.1892V35.8016H231.238V10.4516H235.089V23.4041C235.089 23.5131 235.069 23.5948 235.025 23.6493L233.853 25.4505Z" fill="#7893CB"/>
<defs>
<linearGradient id="paint0_linear_1_591" x1="-5.55338" y1="50.2859" x2="30.8298" y2="8.43334" gradientUnits="userSpaceOnUse">
<stop offset="0.1031" stop-color="#7893CB"/>
<stop offset="0.1375" stop-color="#728BC0"/>
<stop offset="0.543" stop-color="#3E557C"/>
<stop offset="0.842" stop-color="#1D3A5B"/>
<stop offset="1" stop-color="#0F3051"/>
</linearGradient>
</defs>
</svg>
