<svg width="21" height="20" viewBox="0 0 21 20" fill="none" xmlns="http://www.w3.org/2000/svg">
<path d="M20 7.70052C20.1 7.20052 19.7 6.60052 19.2 6.60052L13.5 5.80052L10.9 0.600524C10.8 0.400524 10.7 0.300524 10.5 0.200524C10 -0.0994757 9.4 0.100524 9.1 0.600524L6.6 5.80052L0.9 6.60052C0.6 6.60052 0.4 6.70052 0.3 6.90052C-0.1 7.30052 -0.1 7.90052 0.3 8.30052L4.4 12.3005L3.4 18.0005C3.4 18.2005 3.4 18.4005 3.5 18.6005C3.8 19.1005 4.4 19.3005 4.9 19.0005L10 16.3005L15.1 19.0005C15.2 19.1005 15.4 19.1005 15.6 19.1005C15.7 19.1005 15.7 19.1005 15.8 19.1005C16.3 19.0005 16.7 18.5005 16.6 17.9005L15.6 12.2005L19.7 8.20052C19.9 8.10052 20 7.90052 20 7.70052Z" fill="#5A75AD"/>
</svg>
